<?xml version="1.0" encoding="utf-8"?>
<!-- Generator: Adobe Illustrator 27.5.0, SVG Export Plug-In . SVG Version: 6.00 Build 0)  -->
<svg version="1.1" xmlns="http://www.w3.org/2000/svg" xmlns:xlink="http://www.w3.org/1999/xlink" x="0px" y="0px"
	 viewBox="0 0 750 500" style="enable-background:new 0 0 750 500;" xml:space="preserve">
<g id="BACKGROUND">
	<g>
		<g>
			<g>
				<g>
					<g>
						<g>
							<radialGradient id="SVGID_1_" cx="373.3409" cy="98.3242" r="746.396" gradientUnits="userSpaceOnUse">
								<stop  offset="0" style="stop-color:#2F5FEB"/>
								<stop  offset="0.9832" style="stop-color:#001324"/>
							</radialGradient>
							<rect style="fill:url(#SVGID_1_);" width="750" height="500"/>
						</g>
					</g>
				</g>
			</g>
		</g>
		<g style="opacity:0.21;">
			<g>
				<g>
					<g>
						<path style="fill:#408DFF;" d="M518.533,104.746c7.685,0,14.91,2.993,20.343,8.427L710.914,285.21
							c5.434,5.434,8.427,12.659,8.427,20.344s-2.993,14.91-8.427,20.344c-5.434,5.434-12.659,8.427-20.344,8.427
							c-7.685,0-14.91-2.993-20.344-8.427L498.189,153.86c-11.217-11.217-11.217-29.47,0-40.687
							C503.623,107.739,510.848,104.746,518.533,104.746 M518.533,103.996c-7.555,0-15.11,2.882-20.874,8.646h0
							c-11.528,11.528-11.528,30.219,0,41.748l172.037,172.037c5.764,5.764,13.319,8.646,20.874,8.646
							c7.555,0,15.11-2.882,20.874-8.646v0c11.528-11.528,11.528-30.219,0-41.748L539.407,112.643
							C533.642,106.878,526.088,103.996,518.533,103.996L518.533,103.996z"/>
					</g>
					<g>
						<path style="fill:#408DFF;" d="M622.974,186.617c4.235,0,8.217,1.649,11.211,4.644l50.865,50.865
							c6.182,6.182,6.182,16.24,0,22.422c-2.995,2.995-6.976,4.644-11.211,4.644c-4.235,0-8.217-1.649-11.211-4.644l-50.865-50.865
							c-6.182-6.182-6.182-16.24,0-22.422C614.758,188.266,618.739,186.617,622.974,186.617 M622.974,185.867
							c-4.25,0-8.499,1.621-11.742,4.864c-6.485,6.485-6.485,16.998,0,23.483l50.865,50.865c3.242,3.242,7.492,4.863,11.742,4.863
							c4.25,0,8.499-1.621,11.741-4.863v0c6.485-6.485,6.485-16.998,0-23.483l-50.865-50.865
							C631.473,187.488,627.224,185.867,622.974,185.867L622.974,185.867z"/>
					</g>
					<g>
						<path style="fill:#408DFF;" d="M463.999,101.319c5.185,0,10.059,2.019,13.726,5.685l76.255,76.255
							c7.568,7.568,7.568,19.883,0,27.451c-3.666,3.666-8.541,5.685-13.726,5.685s-10.059-2.019-13.726-5.685l-76.255-76.255
							c-7.568-7.568-7.568-19.883,0-27.451C453.94,103.338,458.814,101.319,463.999,101.319 M463.999,100.569
							c-5.16,0-10.319,1.968-14.256,5.905v0c-7.873,7.873-7.873,20.639,0,28.512l76.255,76.255
							c3.937,3.937,9.096,5.905,14.256,5.905s10.319-1.968,14.256-5.905v0c7.873-7.873,7.873-20.639,0-28.512l-76.255-76.255
							C474.318,102.538,469.159,100.569,463.999,100.569L463.999,100.569z"/>
					</g>
					<g>
						<path style="fill:#408DFF;" d="M511.22,318.564c5.185,0,10.059,2.019,13.726,5.685l76.255,76.255
							c3.666,3.666,5.685,8.541,5.685,13.726c0,5.185-2.019,10.059-5.685,13.726c-3.666,3.666-8.541,5.685-13.726,5.685
							c-5.185,0-10.059-2.019-13.726-5.685l-76.255-76.255c-7.568-7.568-7.568-19.883,0-27.451
							C501.16,320.583,506.035,318.564,511.22,318.564 M511.22,317.814c-5.16,0-10.319,1.968-14.256,5.905v0
							c-7.873,7.873-7.873,20.639,0,28.512l76.255,76.255c3.937,3.937,9.096,5.905,14.256,5.905s10.319-1.968,14.256-5.905v0
							c7.873-7.873,7.873-20.639,0-28.512l-76.255-76.255C521.539,319.782,516.379,317.814,511.22,317.814L511.22,317.814z"/>
					</g>
					<g>
						<path style="fill:#408DFF;" d="M641.199,126.148c5.185,0,10.059,2.019,13.726,5.685l76.255,76.255
							c7.568,7.568,7.568,19.883,0,27.451c-3.666,3.666-8.541,5.685-13.726,5.685c-5.185,0-10.059-2.019-13.726-5.685
							l-76.255-76.255c-7.568-7.568-7.568-19.883,0-27.451C631.14,128.167,636.014,126.148,641.199,126.148 M641.199,125.398
							c-5.16,0-10.319,1.968-14.256,5.905v0c-7.873,7.873-7.873,20.639,0,28.512l76.255,76.255
							c3.937,3.937,9.096,5.905,14.256,5.905c5.16,0,10.319-1.968,14.256-5.905v0c7.873-7.873,7.873-20.639,0-28.512l-76.255-76.255
							C651.518,127.366,646.359,125.398,641.199,125.398L641.199,125.398z"/>
					</g>
					<g>
						<path style="fill:#408DFF;" d="M436.374,271.703c5.185,0,10.059,2.019,13.726,5.685L624.341,451.63
							c7.568,7.568,7.568,19.883,0,27.451c-3.666,3.666-8.541,5.685-13.726,5.685c-5.185,0-10.059-2.019-13.726-5.685
							L422.648,304.84c-3.666-3.666-5.685-8.541-5.685-13.726c0-5.185,2.019-10.059,5.685-13.726S431.189,271.703,436.374,271.703
							 M436.374,270.953c-5.16,0-10.319,1.968-14.256,5.905h0c-7.873,7.873-7.873,20.639,0,28.512l174.242,174.242
							c3.937,3.937,9.096,5.905,14.256,5.905c5.16,0,10.319-1.968,14.256-5.905c7.873-7.873,7.873-20.639,0-28.512L450.63,276.858
							C446.693,272.922,441.533,270.953,436.374,270.953L436.374,270.953z"/>
					</g>
					<g>
						<path style="fill:#408DFF;" d="M617.066,15.233c5.185,0,10.059,2.019,13.726,5.685l76.255,76.255
							c3.666,3.666,5.685,8.541,5.685,13.726s-2.019,10.059-5.685,13.726c-3.666,3.666-8.541,5.685-13.726,5.685
							s-10.059-2.019-13.726-5.685L603.34,48.37c-7.568-7.568-7.568-19.883,0-27.451C607.006,17.252,611.881,15.233,617.066,15.233
							 M617.066,14.483c-5.16,0-10.319,1.968-14.256,5.905l0,0c-7.873,7.873-7.873,20.639,0,28.512l76.255,76.255
							c3.937,3.937,9.096,5.905,14.256,5.905s10.319-1.968,14.256-5.905c7.873-7.873,7.873-20.639,0-28.512l-76.255-76.255
							C627.385,16.451,622.225,14.483,617.066,14.483L617.066,14.483z"/>
					</g>
					<g>
						<path style="fill:#408DFF;" d="M565.876,246.326c5.185,0,10.059,2.019,13.726,5.685l51.726,51.726
							c3.666,3.666,5.685,8.541,5.685,13.726c0,5.185-2.019,10.059-5.685,13.726c-3.666,3.666-8.541,5.685-13.726,5.685
							s-10.059-2.019-13.726-5.685l-51.726-51.726c-7.568-7.568-7.568-19.883,0-27.451
							C555.816,248.345,560.691,246.326,565.876,246.326 M565.876,245.576c-5.16,0-10.319,1.968-14.256,5.905h0
							c-7.873,7.873-7.873,20.639,0,28.512l51.726,51.726c3.937,3.937,9.096,5.905,14.256,5.905s10.319-1.968,14.256-5.905
							c7.873-7.873,7.873-20.639,0-28.512l-51.726-51.726C576.195,247.544,571.035,245.576,565.876,245.576L565.876,245.576z"/>
					</g>
					<g>
						<path style="fill:#408DFF;" d="M560.227,68.319c5.185,0,10.059,2.019,13.726,5.685l11.607,11.607
							c7.568,7.568,7.568,19.883,0,27.451c-3.666,3.666-8.541,5.685-13.726,5.685c-5.185,0-10.059-2.019-13.726-5.685
							l-11.607-11.607c-3.666-3.666-5.685-8.541-5.685-13.726s2.019-10.059,5.685-13.726S555.042,68.319,560.227,68.319
							 M560.227,67.569c-5.16,0-10.319,1.968-14.256,5.905h0c-7.873,7.873-7.873,20.639,0,28.512l11.607,11.607
							c3.937,3.937,9.096,5.905,14.256,5.905c5.16,0,10.319-1.968,14.256-5.905c7.873-7.873,7.873-20.639,0-28.512l-11.607-11.607
							C570.546,69.538,565.387,67.569,560.227,67.569L560.227,67.569z"/>
					</g>
					<g>
						<path style="fill:#408DFF;" d="M592.581,318.805c5.185,0,10.059,2.019,13.726,5.685l11.607,11.607
							c3.666,3.666,5.685,8.541,5.685,13.726c0,5.185-2.019,10.059-5.685,13.726c-3.666,3.666-8.541,5.685-13.726,5.685
							s-10.059-2.019-13.726-5.685l-11.607-11.607c-7.568-7.568-7.568-19.883,0-27.451
							C582.522,320.824,587.397,318.805,592.581,318.805 M592.581,318.055c-5.16,0-10.319,1.968-14.256,5.905v0
							c-7.873,7.873-7.873,20.639,0,28.512l11.607,11.607c3.937,3.937,9.096,5.905,14.256,5.905s10.319-1.968,14.256-5.905v0
							c7.873-7.873,7.873-20.639,0-28.512l-11.607-11.607C602.901,320.023,597.741,318.055,592.581,318.055L592.581,318.055z"/>
					</g>
				</g>
			</g>
			<g>
				<g>
					<g>
						<path style="fill:#408DFF;" d="M264.806,73.021c7.685,0,14.91,2.993,20.344,8.427c11.217,11.217,11.217,29.469,0,40.687
							L113.112,294.172c-5.434,5.434-12.659,8.427-20.343,8.427s-14.91-2.993-20.344-8.427c-11.217-11.218-11.217-29.47,0-40.687
							L244.463,81.448C249.897,76.014,257.121,73.021,264.806,73.021 M264.806,72.271c-7.555,0-15.11,2.882-20.874,8.646
							L71.895,252.955c-11.528,11.528-11.528,30.219,0,41.748h0c5.764,5.764,13.319,8.646,20.874,8.646s15.11-2.882,20.874-8.646
							L285.68,122.665c11.528-11.528,11.528-30.219,0-41.748l0,0C279.916,75.153,272.361,72.271,264.806,72.271L264.806,72.271z"/>
					</g>
					<g>
						<path style="fill:#408DFF;" d="M212.589,102.668c4.235,0,8.217,1.649,11.211,4.644c2.995,2.995,4.644,6.976,4.644,11.211
							c0,4.235-1.649,8.217-4.644,11.211l-50.865,50.865c-2.995,2.995-6.976,4.644-11.211,4.644s-8.217-1.649-11.211-4.644
							s-4.644-6.976-4.644-11.211s1.649-8.217,4.644-11.211l50.865-50.865C204.373,104.317,208.354,102.668,212.589,102.668
							 M212.589,101.918c-4.25,0-8.499,1.621-11.742,4.863l-50.865,50.865c-6.485,6.485-6.485,16.998,0,23.483
							c3.242,3.242,7.492,4.864,11.742,4.864s8.499-1.621,11.742-4.864l50.865-50.865c6.485-6.485,6.485-16.998,0-23.483l0,0
							C221.089,103.539,216.839,101.918,212.589,101.918L212.589,101.918z"/>
					</g>
					<g>
						<path style="fill:#408DFF;" d="M156.238,232.697c5.185,0,10.059,2.019,13.726,5.685c7.568,7.568,7.568,19.883,0,27.451
							l-76.255,76.255c-3.666,3.666-8.541,5.685-13.726,5.685c-5.185,0-10.059-2.019-13.726-5.685
							c-7.568-7.568-7.568-19.883,0-27.451l76.255-76.255C146.178,234.716,151.053,232.697,156.238,232.697 M156.238,231.947
							c-5.16,0-10.319,1.968-14.256,5.905l-76.255,76.255c-7.873,7.873-7.873,20.639,0,28.512l0,0
							c3.937,3.937,9.096,5.905,14.256,5.905c5.16,0,10.319-1.968,14.256-5.905l76.255-76.255c7.873-7.873,7.873-20.639,0-28.512
							l0,0C166.557,233.915,161.397,231.947,156.238,231.947L156.238,231.947z"/>
					</g>
					<g>
						<path style="fill:#408DFF;" d="M216.915,282.616c5.185,0,10.059,2.019,13.726,5.685c7.568,7.568,7.568,19.883,0,27.451
							l-76.255,76.255c-3.666,3.666-8.541,5.685-13.726,5.685c-5.185,0-10.059-2.019-13.726-5.685
							c-7.568-7.568-7.568-19.883,0-27.451l76.255-76.255C206.855,284.635,211.73,282.616,216.915,282.616 M216.915,281.866
							c-5.16,0-10.319,1.968-14.256,5.905l-76.255,76.255c-7.873,7.873-7.873,20.639,0,28.512l0,0
							c3.937,3.937,9.096,5.905,14.256,5.905c5.16,0,10.319-1.968,14.256-5.905l76.255-76.255c7.873-7.873,7.873-20.639,0-28.512
							l0,0C227.234,283.834,222.074,281.866,216.915,281.866L216.915,281.866z"/>
					</g>
					<g>
						<path style="fill:#408DFF;" d="M181.066,55.497c5.185,0,10.059,2.019,13.726,5.685c7.568,7.568,7.568,19.883,0,27.451
							l-76.255,76.255c-3.666,3.666-8.541,5.685-13.726,5.685c-5.185,0-10.059-2.019-13.726-5.685
							c-7.568-7.568-7.568-19.883,0-27.451l76.255-76.255C171.006,57.516,175.881,55.497,181.066,55.497 M181.066,54.747
							c-5.16,0-10.319,1.968-14.256,5.905l-76.255,76.255c-7.873,7.873-7.873,20.639,0,28.512h0
							c3.937,3.937,9.096,5.905,14.256,5.905c5.16,0,10.319-1.968,14.256-5.905l76.255-76.255c7.873-7.873,7.873-20.639,0-28.512
							l0,0C191.385,56.715,186.225,54.747,181.066,54.747L181.066,54.747z"/>
					</g>
					<g>
						<path style="fill:#408DFF;" d="M108.801,15.233c5.185,0,10.059,2.019,13.726,5.685c7.568,7.568,7.568,19.883,0,27.451
							l-76.255,76.255c-3.666,3.666-8.541,5.685-13.726,5.685c-5.185,0-10.059-2.019-13.726-5.685
							c-7.568-7.568-7.568-19.883,0-27.451l76.255-76.255C98.742,17.252,103.616,15.233,108.801,15.233 M108.801,14.483
							c-5.16,0-10.319,1.968-14.256,5.905L18.29,96.643c-7.873,7.873-7.873,20.639,0,28.512c3.937,3.937,9.096,5.905,14.256,5.905
							c5.16,0,10.319-1.968,14.256-5.905L123.057,48.9c7.873-7.873,7.873-20.639,0-28.512l0,0
							C119.12,16.451,113.961,14.483,108.801,14.483L108.801,14.483z"/>
					</g>
					<g>
						<path style="fill:#408DFF;" d="M273.362,172.322c5.185,0,10.059,2.019,13.726,5.685c7.568,7.568,7.568,19.883,0,27.451
							l-51.726,51.726c-3.666,3.666-8.541,5.685-13.726,5.685c-5.185,0-10.059-2.019-13.726-5.685
							c-7.568-7.568-7.568-19.883,0-27.451l51.726-51.726C263.303,174.341,268.177,172.322,273.362,172.322 M273.362,171.572
							c-5.16,0-10.319,1.968-14.256,5.905l-51.726,51.726c-7.873,7.873-7.873,20.639,0,28.512h0
							c3.937,3.937,9.096,5.905,14.256,5.905c5.16,0,10.319-1.968,14.256-5.905l51.726-51.726c7.873-7.873,7.873-20.639,0-28.512
							l0,0C283.681,173.54,278.522,171.572,273.362,171.572L273.362,171.572z"/>
					</g>
					<g>
						<path style="fill:#408DFF;" d="M279.093,388.664c5.185,0,10.059,2.019,13.726,5.685c7.568,7.568,7.568,19.883,0,27.451
							l-51.726,51.726c-3.666,3.666-8.541,5.685-13.726,5.685c-5.185,0-10.059-2.019-13.726-5.685
							c-3.666-3.666-5.685-8.541-5.685-13.726c0-5.185,2.019-10.059,5.685-13.726l51.726-51.726
							C269.034,390.683,273.908,388.664,279.093,388.664 M279.093,387.914c-5.16,0-10.319,1.968-14.256,5.905l-51.726,51.726
							c-7.873,7.873-7.873,20.639,0,28.512v0c3.937,3.937,9.096,5.905,14.256,5.905s10.319-1.968,14.256-5.905l51.726-51.726
							c7.873-7.873,7.873-20.639,0-28.512h0C289.413,389.882,284.253,387.914,279.093,387.914L279.093,387.914z"/>
					</g>
					<g>
						<path style="fill:#408DFF;" d="M58.59,201.116c5.185,0,10.059,2.019,13.726,5.685c7.568,7.568,7.568,19.883,0,27.451
							L60.708,245.86c-3.666,3.666-8.541,5.685-13.726,5.685c-5.185,0-10.059-2.019-13.726-5.685
							c-3.666-3.666-5.685-8.541-5.685-13.726s2.019-10.059,5.685-13.726l11.607-11.607C48.53,203.135,53.405,201.116,58.59,201.116
							 M58.59,200.366c-5.16,0-10.319,1.968-14.256,5.905l-11.607,11.607c-7.873,7.873-7.873,20.639,0,28.512l0,0
							c3.937,3.937,9.096,5.905,14.256,5.905c5.16,0,10.319-1.968,14.256-5.905l11.607-11.607c7.873-7.873,7.873-20.639,0-28.512h0
							C68.909,202.335,63.749,200.366,58.59,200.366L58.59,200.366z"/>
					</g>
					<g>
						<path style="fill:#408DFF;" d="M230.244,349.826c5.185,0,10.059,2.019,13.726,5.685c7.568,7.568,7.568,19.883,0,27.451
							l-11.607,11.607c-3.666,3.666-8.541,5.685-13.726,5.685s-10.059-2.019-13.726-5.685c-7.568-7.568-7.568-19.883,0-27.451
							l11.607-11.607C220.184,351.845,225.059,349.826,230.244,349.826 M230.244,349.076c-5.16,0-10.319,1.968-14.256,5.905
							l-11.607,11.607c-7.873,7.873-7.873,20.639,0,28.512c3.937,3.937,9.096,5.905,14.256,5.905s10.319-1.968,14.256-5.905
							l11.607-11.607c7.873-7.873,7.873-20.639,0-28.512h0C240.563,351.045,235.403,349.076,230.244,349.076L230.244,349.076z"/>
					</g>
				</g>
			</g>
		</g>
	</g>
</g>
<g id="OBJECTS">
	<g>
		<g>
			<g>
				<g>
					
						<linearGradient id="SVGID_00000160178545301295601180000003570428498022153136_" gradientUnits="userSpaceOnUse" x1="-83.7534" y1="342.2286" x2="185.2344" y2="62.9742">
						<stop  offset="0" style="stop-color:#132277"/>
						<stop  offset="0.9944" style="stop-color:#408DFF"/>
					</linearGradient>
					<polygon style="fill:url(#SVGID_00000160178545301295601180000003570428498022153136_);" points="0,298.098 201.253,96.845 
						154.593,50.185 0,204.778 					"/>
				</g>
				<g>
					
						<linearGradient id="SVGID_00000153675095942961998330000005658122116446492588_" gradientUnits="userSpaceOnUse" x1="177.9227" y1="106.509" x2="177.9227" y2="40.5213">
						<stop  offset="0" style="stop-color:#BFD0EF"/>
						<stop  offset="1" style="stop-color:#FFFFFF"/>
					</linearGradient>
					<circle style="fill:url(#SVGID_00000153675095942961998330000005658122116446492588_);" cx="177.923" cy="73.515" r="32.994"/>
				</g>
			</g>
			<g>
				<g>
					
						<linearGradient id="SVGID_00000174577160551639128620000010713011232176396460_" gradientUnits="userSpaceOnUse" x1="-4.029" y1="498.2575" x2="186.1735" y2="300.7953">
						<stop  offset="0" style="stop-color:#132277"/>
						<stop  offset="0.9944" style="stop-color:#408DFF"/>
					</linearGradient>
					<polygon style="fill:url(#SVGID_00000174577160551639128620000010713011232176396460_);" points="165.038,292.264 0,457.302 
						0,500 23.289,500 198.032,325.258 					"/>
				</g>
				<g>
					
						<linearGradient id="SVGID_00000130638377096301345510000002178564143440457151_" gradientUnits="userSpaceOnUse" x1="181.5347" y1="332.0908" x2="181.5347" y2="285.4306">
						<stop  offset="0" style="stop-color:#BFD0EF"/>
						<stop  offset="1" style="stop-color:#FFFFFF"/>
					</linearGradient>
					<circle style="fill:url(#SVGID_00000130638377096301345510000002178564143440457151_);" cx="181.535" cy="308.761" r="23.33"/>
				</g>
			</g>
			<g>
				<g>
					
						<linearGradient id="SVGID_00000088101547417908894650000006244746695798801328_" gradientUnits="userSpaceOnUse" x1="-15.4726" y1="595.2838" x2="179.907" y2="392.4469">
						<stop  offset="0" style="stop-color:#132277"/>
						<stop  offset="0.9944" style="stop-color:#408DFF"/>
					</linearGradient>
					<polygon style="fill:url(#SVGID_00000088101547417908894650000006244746695798801328_);" points="140.503,500 207.206,433.297 
						141.785,367.876 9.661,500 					"/>
				</g>
				<g>
					
						<linearGradient id="SVGID_00000142148740484141583730000006015702585922462363_" gradientUnits="userSpaceOnUse" x1="174.4957" y1="446.8456" x2="174.4957" y2="354.3268">
						<stop  offset="0" style="stop-color:#BFD0EF"/>
						<stop  offset="1" style="stop-color:#FFFFFF"/>
					</linearGradient>
					
						<circle style="fill:url(#SVGID_00000142148740484141583730000006015702585922462363_);" cx="174.496" cy="400.586" r="46.259"/>
				</g>
			</g>
			<g>
				<g>
					
						<linearGradient id="SVGID_00000163767007159246003420000000502134092941669260_" gradientUnits="userSpaceOnUse" x1="-109.0589" y1="305.204" x2="86.3208" y2="102.3671">
						<stop  offset="0" style="stop-color:#132277"/>
						<stop  offset="0.9944" style="stop-color:#408DFF"/>
					</linearGradient>
					<polygon style="fill:url(#SVGID_00000163767007159246003420000000502134092941669260_);" points="0,255.25 112.812,142.439 
						47.391,77.018 0,124.409 					"/>
				</g>
				<g>
					
						<linearGradient id="SVGID_00000018197339178442477440000014812353083338384830_" gradientUnits="userSpaceOnUse" x1="80.1016" y1="155.9877" x2="80.1016" y2="63.4688">
						<stop  offset="0" style="stop-color:#BFD0EF"/>
						<stop  offset="1" style="stop-color:#FFFFFF"/>
					</linearGradient>
					<circle style="fill:url(#SVGID_00000018197339178442477440000014812353083338384830_);" cx="80.102" cy="109.728" r="46.259"/>
				</g>
			</g>
			<g>
				<g>
					
						<linearGradient id="SVGID_00000075849404755068902950000006694204882393217964_" gradientUnits="userSpaceOnUse" x1="-61.3831" y1="412.6295" x2="133.9966" y2="209.7926">
						<stop  offset="0" style="stop-color:#132277"/>
						<stop  offset="0.9944" style="stop-color:#408DFF"/>
					</linearGradient>
					<polygon style="fill:url(#SVGID_00000075849404755068902950000006694204882393217964_);" points="0,411.253 160.947,250.306 
						95.526,184.885 0,280.411 					"/>
				</g>
				<g>
					
						<linearGradient id="SVGID_00000034768711012956136300000006123391079723439265_" gradientUnits="userSpaceOnUse" x1="128.2363" y1="263.8552" x2="128.2363" y2="171.3363">
						<stop  offset="0" style="stop-color:#BFD0EF"/>
						<stop  offset="1" style="stop-color:#FFFFFF"/>
					</linearGradient>
					
						<circle style="fill:url(#SVGID_00000034768711012956136300000006123391079723439265_);" cx="128.236" cy="217.596" r="46.259"/>
				</g>
			</g>
			<g>
				<g>
					
						<linearGradient id="SVGID_00000120535070255288297750000003019378101829024956_" gradientUnits="userSpaceOnUse" x1="-24.7789" y1="446.4739" x2="114.5725" y2="301.8037">
						<stop  offset="0" style="stop-color:#132277"/>
						<stop  offset="0.9944" style="stop-color:#408DFF"/>
					</linearGradient>
					<polygon style="fill:url(#SVGID_00000120535070255288297750000003019378101829024956_);" points="0,464.853 133.977,330.875 
						87.317,284.215 0,371.532 					"/>
				</g>
				<g>
					
						<linearGradient id="SVGID_00000101065535171110936010000010852886736434621836_" gradientUnits="userSpaceOnUse" x1="110.647" y1="340.5392" x2="110.647" y2="274.5515">
						<stop  offset="0" style="stop-color:#BFD0EF"/>
						<stop  offset="1" style="stop-color:#FFFFFF"/>
					</linearGradient>
					
						<circle style="fill:url(#SVGID_00000101065535171110936010000010852886736434621836_);" cx="110.647" cy="307.545" r="32.994"/>
				</g>
				<g>
					<path style="fill:#FFFFFF;" d="M202.674,95.109c-12.885,12.885-33.775,12.885-46.66,0
						c-11.824-11.824-12.789-30.385-2.912-43.32c-11.365,12.96-10.874,32.692,1.491,45.056c12.885,12.885,33.775,12.885,46.66,0
						c1.061-1.061,2.026-2.18,2.912-3.341C203.686,94.05,203.194,94.588,202.674,95.109z"/>
				</g>
				<g>
					<path style="fill:#FFFFFF;" d="M199.452,323.521c-9.111,9.111-23.883,9.111-32.994,0c-8.276-8.276-9.008-21.208-2.25-30.34
						c-8.246,9.159-7.987,23.26,0.829,32.076c9.111,9.111,23.883,9.111,32.994,0c0.836-0.836,1.568-1.732,2.25-2.654
						C200.006,322.91,199.747,323.226,199.452,323.521z"/>
				</g>
				<g>
					<path style="fill:#FFFFFF;" d="M208.627,431.56c-18.065,18.065-47.355,18.065-65.421,0
						c-16.681-16.681-17.946-42.924-3.823-61.072c-15.611,18.175-14.819,45.588,2.402,62.809c18.065,18.065,47.355,18.065,65.421,0
						c1.385-1.385,2.65-2.842,3.823-4.349C210.263,429.839,209.471,430.715,208.627,431.56z"/>
				</g>
				<g>
					<path style="fill:#FFFFFF;" d="M114.233,140.702c-18.065,18.065-47.355,18.065-65.421,0
						C32.131,124.021,30.866,97.777,44.99,79.63c-15.611,18.175-14.82,45.588,2.401,62.809c18.065,18.065,47.355,18.065,65.421,0
						c1.385-1.385,2.65-2.842,3.823-4.349C115.869,138.981,115.077,139.858,114.233,140.702z"/>
				</g>
				<g>
					<path style="fill:#FFFFFF;" d="M162.367,248.57c-18.065,18.065-47.355,18.065-65.421,0
						C80.266,231.889,79,205.646,93.124,187.498c-15.611,18.175-14.819,45.587,2.402,62.808c18.065,18.065,47.355,18.065,65.421,0
						c1.385-1.385,2.65-2.842,3.823-4.349C164.004,246.849,163.212,247.725,162.367,248.57z"/>
				</g>
				<g>
					<path style="fill:#FFFFFF;" d="M135.398,329.139c-12.885,12.885-33.775,12.885-46.66,0
						c-11.824-11.824-12.789-30.385-2.912-43.319c-11.365,12.96-10.873,32.691,1.491,45.055c12.885,12.885,33.775,12.885,46.66,0
						c1.061-1.061,2.026-2.18,2.912-3.341C136.41,328.08,135.919,328.618,135.398,329.139z"/>
				</g>
			</g>
		</g>
		<path style="fill:#2F5FEB;" d="M185.635,305.36l-1.291-3.975c-0.244-0.75-0.911-1.235-1.7-1.235c-0.789,0-1.456,0.485-1.7,1.235
			l-1.291,3.975h-4.179c-0.789,0-1.456,0.485-1.7,1.235c-0.244,0.75,0.011,1.535,0.649,1.998l3.381,2.457l-1.291,3.975
			c-0.244,0.75,0.011,1.535,0.649,1.998c0.319,0.232,0.685,0.348,1.051,0.348c0.366,0,0.732-0.116,1.051-0.348l3.381-2.457
			l3.381,2.457c0.639,0.463,1.463,0.463,2.101,0c0.638-0.463,0.893-1.248,0.65-1.998l-1.291-3.975l3.381-2.457
			c0.638-0.464,0.893-1.248,0.649-1.999c-0.243-0.75-0.911-1.235-1.7-1.235H185.635z"/>
		<path style="fill:#2F5FEB;" d="M196.235,409.86c2.452-3.098,3.795-6.914,3.795-10.817c0-9.863-8.362-17.887-18.64-17.887
			c-2.258,0-4.424,0.388-6.429,1.097c-2.18-0.948-4.491-1.435-6.878-1.435c-9.863,0-17.887,8.362-17.887,18.64
			c0,3.056,0.725,6.076,2.102,8.765l-2.864,7.431c-0.151,0.393-0.053,0.839,0.249,1.133c0.302,0.293,0.751,0.378,1.14,0.216
			l6.443-2.7c3.098,2.452,6.913,3.795,10.817,3.795c2.748,0,5.475-0.672,7.922-1.933c1.706,0.495,3.513,0.764,5.384,0.764
			c3.057,0,6.076-0.725,8.765-2.102l7.431,2.863c0.123,0.047,0.251,0.071,0.378,0.071c0.28,0,0.553-0.111,0.755-0.319
			c0.294-0.302,0.379-0.751,0.215-1.14L196.235,409.86z M168.084,415.994c-3.618,0-7.154-1.317-9.956-3.707
			c-0.301-0.257-0.722-0.323-1.09-0.17l-4.752,1.991l2.148-5.575c0.111-0.288,0.09-0.611-0.058-0.882
			c-1.358-2.488-2.075-5.321-2.075-8.193c0-9.118,7.08-16.536,15.782-16.536c1.407,0,2.784,0.191,4.116,0.568
			c-5.637,3.08-9.45,8.895-9.45,15.552c0,7.04,4.261,13.14,10.438,16.058C171.551,415.684,169.822,415.994,168.084,415.994z
			 M189.997,396.058l-10.667,10.668c-0.197,0.197-0.465,0.308-0.744,0.308c-0.008,0-0.015,0-0.023,0
			c-0.287-0.007-0.559-0.13-0.753-0.342l-5.058-5.523c-0.393-0.428-0.363-1.094,0.065-1.487c0.43-0.393,1.095-0.362,1.487,0.066
			l4.315,4.711l9.89-9.89c0.411-0.411,1.077-0.411,1.488,0C190.408,394.981,190.408,395.647,189.997,396.058z"/>
		<g>
			<g>
				<path style="fill:#2F5FEB;" d="M107.476,290.954c0,0.49,0.368,0.885,0.851,0.964c2.257,0.368,4.341,1.414,5.99,3.064
					c1.822,1.822,2.864,4.129,3.141,6.51c0.056,0.477,0.479,0.827,0.96,0.827l0,0c0.592,0,1.037-0.524,0.966-1.112
					c-0.336-2.781-1.56-5.473-3.69-7.603c-1.948-1.948-4.407-3.192-7.073-3.624c-0.598-0.097-1.146,0.356-1.146,0.962V290.954z"/>
			</g>
			<path style="fill:#2F5FEB;" d="M120.386,311.13c3.632-6.108,2.824-14.143-2.426-19.393c-6.208-6.208-16.307-6.206-22.512,0
				c-6.206,6.206-6.206,16.305,0,22.512c3.103,3.103,7.179,4.655,11.256,4.655c2.816,0,5.632-0.742,8.127-2.223l7.673,7.865
				c0.766,0.766,1.771,1.148,2.777,1.148c1.006,0,2.012-0.383,2.777-1.148c0.742-0.742,1.15-1.728,1.15-2.777
				c0-1.049-0.408-2.035-1.142-2.769L120.386,311.13z M96.748,312.949c-5.489-5.49-5.489-14.421,0-19.911
				c2.745-2.745,6.35-4.117,9.956-4.117c3.605,0,7.211,1.373,9.956,4.117c5.489,5.49,5.489,14.421,0,19.911
				C111.169,318.438,102.237,318.437,96.748,312.949z"/>
		</g>
		<g>
			<path style="fill:#2F5FEB;" d="M151.088,201.826h-5.866c0.015-0.627,0.026-1.264,0.026-1.92c0-0.568-0.461-1.029-1.029-1.029
				h-30.723c-0.568,0-1.029,0.461-1.029,1.029c0,0.656,0.011,1.292,0.026,1.92h-5.849c-0.56,0-1.018,0.449-1.028,1.009
				c-0.006,0.3-0.093,7.387,3.76,11.313c1.473,1.501,3.316,2.334,5.482,2.494c3.006,8.589,8.151,11.435,11.303,12.376v5.08h-4.848
				c-0.568,0-1.029,0.461-1.029,1.029v1.532h-1.376c-0.366,0-0.703,0.194-0.888,0.509l-1.966,3.36
				c-0.186,0.318-0.187,0.712-0.004,1.031c0.183,0.32,0.524,0.517,0.892,0.517h23.838c0.369,0,0.71-0.198,0.893-0.518
				c0.183-0.32,0.181-0.714-0.006-1.032l-1.975-3.36c-0.185-0.315-0.522-0.508-0.887-0.508h-1.376v-1.532
				c0-0.568-0.461-1.029-1.029-1.029h-4.848v-5.08c3.152-0.941,8.297-3.787,11.303-12.376c2.173-0.157,4.023-0.99,5.499-2.495
				c3.853-3.925,3.766-11.013,3.761-11.313C152.106,202.274,151.649,201.826,151.088,201.826z M110.849,212.711
				c-2.473-2.515-3.022-6.866-3.143-8.828h4.865c0.224,4.181,0.803,7.679,1.614,10.606
				C112.883,214.247,111.783,213.66,110.849,212.711z M128.219,234.098v-4.655c0.346,0.037,0.572,0.041,0.639,0.041
				c0.068,0,0.293-0.004,0.639-0.041v4.655H128.219z M146.884,212.711c-0.938,0.954-2.044,1.542-3.354,1.782
				c0.812-2.928,1.39-6.427,1.615-10.61h4.883C149.906,205.845,149.357,210.196,146.884,212.711z"/>
		</g>
		<path style="fill:#2F5FEB;" d="M159.158,72.914c-0.227,0.213-0.566,0.701-0.285,1.574c1.198,3.728,14.427,14.218,21.22,15.116
			c0.631,0.083,1.246,0.125,1.845,0.125c2.686,0,5.032-0.833,6.859-2.452c2.252-1.994,3.523-5.071,3.488-8.441
			c-0.063-6.049,0.525-11.788,1.397-13.647c0.668-1.424,0.655-2.634-0.037-3.319c-0.479-0.475-1.44-0.851-3.307,0.047
			c-2.692,1.294-3.689,4.176-4.114,5.406c-0.042,0.122-0.077,0.223-0.107,0.301c-0.047,0.122-0.098,0.285-0.156,0.47
			c-0.083,0.267-0.287,0.925-0.469,1.167c-0.085-0.067-0.238-0.22-0.456-0.551c-0.395-0.601-1.008-2.094-1.717-3.823
			c-2.575-6.273-4.929-11.432-7.708-10.931c-0.536,0.096-0.951,0.389-1.202,0.847c-0.818,1.496,0.32,4.507,2.016,8.599
			c0.504,1.216,1.147,2.766,1.405,3.693c-0.658-0.63-1.657-1.817-2.504-2.825c-3.224-3.835-7.238-8.606-10.423-7.545
			c-0.845,0.281-1.153,0.831-1.263,1.243c-0.481,1.799,1.81,4.55,5.361,8.542c1.401,1.575,3.458,3.889,3.775,4.787
			c-0.934-0.205-3.464-2.19-5.184-3.539c-4.151-3.256-6.782-5.166-8.31-4.265c-0.343,0.202-0.556,0.529-0.601,0.922
			c-0.178,1.549,2.473,4.201,6.861,8.385c1.35,1.287,2.936,2.799,3.796,3.776c-0.724-0.357-1.69-0.929-2.473-1.394
			C163.814,73.374,160.661,71.506,159.158,72.914z M174.608,77.448c0-1.992,1.242-4.052,3.321-4.052
			c1.541,0,2.596,0.531,3.171,0.929c0.575-0.398,1.63-0.929,3.17-0.929c2.017,0,3.321,1.519,3.321,3.869
			c0,3.895-5.89,7.35-6.141,7.495c-0.108,0.062-0.229,0.094-0.35,0.094c-0.088,0-0.176-0.016-0.259-0.05
			C180.585,84.703,174.608,82.256,174.608,77.448z"/>
		<g>
			<path style="fill:#2F5FEB;" d="M59.103,117.942c-0.534-0.583-0.495-1.491,0.088-2.026c0.033-0.03,0.063-0.061,0.092-0.095
				l1.526-1.784c0.584-0.494,1.461-0.443,1.983,0.126c0.534,0.583,0.495,1.491-0.088,2.026c-0.033,0.03-0.063,0.061-0.092,0.095
				l-1.526,1.784C60.502,118.562,59.624,118.511,59.103,117.942z M64.567,123.206c-0.581,0.487-1.62,0.286-2.299-0.454
				c-0.692-0.755-0.793-1.836-0.22-2.361c0.028-0.025,0.054-0.052,0.079-0.08l4.005-4.509c0.341-0.287,0.766-0.284,0.996-0.254
				c0.469,0.059,0.944,0.318,1.303,0.709c0.692,0.754,0.793,1.836,0.22,2.361c-0.027,0.026-0.054,0.052-0.079,0.08L64.567,123.206z
				 M70.222,125.963l-1.317,1.452c-0.601,0.453-1.623,0.207-2.267-0.554c-0.661-0.782-0.718-1.867-0.124-2.369
				c0.037-0.031,0.072-0.065,0.104-0.101l3.436-3.788c0.35-0.265,0.769-0.245,0.995-0.206c0.466,0.078,0.93,0.355,1.273,0.76
				c0.342,0.405,0.538,0.909,0.538,1.381c0,0.239-0.055,0.684-0.414,0.987c-0.037,0.031-0.072,0.065-0.104,0.101l-0.014,0.015
				c-0.1,0.074-0.206,0.138-0.3,0.223c-0.033,0.03-0.064,0.061-0.092,0.096l-1.535,1.794
				C70.332,125.82,70.283,125.895,70.222,125.963z M75.448,127.597c-0.033,0.03-0.064,0.061-0.092,0.096l-1.525,1.783
				c-0.584,0.494-1.462,0.443-1.983-0.126c-0.458-0.5-0.491-1.238-0.125-1.775l2.086-2.3c0.562-0.298,1.277-0.195,1.727,0.296
				c0.259,0.282,0.393,0.649,0.376,1.031C75.895,126.984,75.73,127.338,75.448,127.597z M102.998,120.053
				c-0.833,1.586-2.838,0.932-3.264,0.771l-13.058-7.718c-0.521-0.308-1.194-0.136-1.503,0.386
				c-0.308,0.522-0.135,1.195,0.386,1.503l12.578,7.435c-0.058,0.709-0.277,1.93-1.085,2.691c-0.628,0.594-1.521,0.821-2.731,0.691
				c-0.029-0.002-0.056,0.006-0.085,0.005l-10.201-6.029c-0.522-0.309-1.194-0.135-1.503,0.386
				c-0.308,0.522-0.135,1.195,0.386,1.503l9.726,5.748c-0.45,0.635-0.963,1.049-1.537,1.225c-1.146,0.351-2.267-0.307-2.271-0.31
				c-0.083-0.052-0.175-0.074-0.264-0.102l-6.035-3.567c-0.521-0.309-1.194-0.135-1.503,0.386c-0.308,0.522-0.135,1.195,0.386,1.503
				l5.073,2.999c-2.474,2.103-5.352,0.335-5.71,0.099c-1.038-0.686-2.157-1.576-2.825-2.125c0.077-0.271,0.133-0.548,0.146-0.836
				c0.042-0.968-0.296-1.895-0.951-2.609c-0.584-0.637-1.347-1.001-2.143-1.119c0.016-0.142,0.042-0.28,0.042-0.426
				c0.001-0.999-0.374-1.994-1.056-2.801c-0.683-0.808-1.601-1.344-2.586-1.509c-0.082-0.014-0.161-0.007-0.242-0.016
				c0.166-1.161-0.204-2.446-1.121-3.445c-0.714-0.779-1.654-1.277-2.645-1.403c-0.836-0.105-1.622,0.069-2.282,0.475
				c-0.158-0.418-0.392-0.815-0.712-1.164c-1.352-1.475-3.652-1.573-5.126-0.222c-0.032,0.03-0.064,0.061-0.092,0.095l-0.192,0.224
				l-1.119-0.883l8.982-11.359c-1.6,2.675-1.373,4.801-1.291,5.283l0.408,4.986c0.044,0.531,0.463,0.954,0.993,1.004
				c0.478,0.044,0.938,0.066,1.382,0.066c2.268,0,4.098-0.572,5.453-1.706c1.375-1.151,2.244-2.865,2.59-5.102l4.909-0.282
				c0.463,0.322,1.37,0.916,2.539,1.523l17.437,10.662c0.988,0.519,1.629,1.11,1.855,1.71
				C103.3,119.106,103.253,119.569,102.998,120.053z M91.89,92.562l4.375-3.46c0.184-0.145,0.406-0.222,0.637-0.222
				c0.04,0,0.081,0.002,0.121,0.007c0.274,0.032,0.518,0.169,0.689,0.384l14.878,18.814c0.352,0.446,0.276,1.096-0.169,1.448
				l-4.375,3.459c-0.445,0.352-1.095,0.277-1.447-0.169L91.721,94.008c-0.171-0.216-0.247-0.485-0.215-0.759
				C91.538,92.977,91.674,92.733,91.89,92.562z M71.944,98.196c4.579-3.564,15.964-2.689,18.344-2.462l12.671,16.023
				c-0.122,0.533-0.518,1.591-1.76,2.589l-9.991-6.11c0.941-0.052,1.873-0.249,2.761-0.656c0.551-0.252,0.793-0.904,0.54-1.454
				c-0.252-0.551-0.904-0.792-1.454-0.54c-2.591,1.188-5.939-0.055-8.21-1.241l-2.642-1.616c-0.078-0.048-0.159-0.081-0.242-0.107
				c-0.014-0.005-0.028-0.007-0.043-0.011c-0.115-0.031-0.232-0.047-0.348-0.041c-0.001,0-0.002,0-0.002,0l-6.213,0.357
				c-0.545,0.031-0.984,0.458-1.03,1.002c-0.179,2.102-0.826,3.634-1.925,4.554c-0.998,0.836-2.441,1.239-4.31,1.192l-0.335-4.091
				c-0.004-0.041-0.012-0.096-0.02-0.136C67.706,105.308,67.116,101.954,71.944,98.196z M68.885,97.977l0.437-0.552l0.087,0.053
				C69.228,97.644,69.05,97.811,68.885,97.977z M55.477,111.394C55.477,111.395,55.477,111.395,55.477,111.394
				c-0.001,0.001-0.001,0.002-0.002,0.002l-1.128,1.427c-0.352,0.446-1.001,0.522-1.448,0.169l-4.374-3.459
				c-0.446-0.353-0.522-1.002-0.169-1.448l14.878-18.815c0.171-0.216,0.415-0.352,0.689-0.384c0.274-0.034,0.543,0.044,0.759,0.216
				l4.375,3.459c0.216,0.171,0.352,0.415,0.384,0.688c0.032,0.274-0.044,0.543-0.215,0.759l-0.742,0.939
				c-0.177,0.089-0.334,0.224-0.446,0.405c-0.062,0.101-0.1,0.209-0.126,0.318L55.477,111.394z"/>
		</g>
	</g>
	<g>
		<text transform="matrix(1 0 0 1 319.6006 198.9776)"><tspan x="0" y="0" style="fill:#B6D7FF; font-family:'Montserrat-Light'; font-size:37.7928px;">CORE</tspan><tspan x="-43.9" y="40.143" style="fill:#B6D7FF; font-family:'Montserrat-Bold'; font-size:47.2411px;">VALUES</tspan></text>
		<g>
			<rect x="265.727" y="253.977" style="fill:none;" width="218.546" height="79.17"/>
			<text transform="matrix(1 0 0 1 280.421 260.6543)"><tspan x="0" y="0" style="fill:#B6D7FF; font-family:'Montserrat-Regular'; font-size:9px;">Lorem ipsum dolor sit amet, consectetuer </tspan><tspan x="3.563" y="10.8" style="fill:#B6D7FF; font-family:'Montserrat-Regular'; font-size:9px;">adipiscing elit, sed diam nonummy nibh </tspan><tspan x="-3.155" y="21.601" style="fill:#B6D7FF; font-family:'Montserrat-Regular'; font-size:9px;">euismod tincidunt ut laoreet dolore magna </tspan><tspan x="-7.516" y="32.4" style="fill:#B6D7FF; font-family:'Montserrat-Regular'; font-size:9px;">aliquam erat volutpat. Ut wisi enim ad minim </tspan><tspan x="-10.769" y="43.2" style="fill:#B6D7FF; font-family:'Montserrat-Regular'; font-size:9px;">veniam, quis nostrud exerci tation ullamcorper </tspan><tspan x="-9.914" y="54" style="fill:#B6D7FF; font-family:'Montserrat-Regular'; font-size:9px;">suscipit lobortis nisl ut aliquip ex ea commodo </tspan><tspan x="69.744" y="64.8" style="fill:#B6D7FF; font-family:'Montserrat-Regular'; font-size:9px;">consequat. </tspan></text>
		</g>
	</g>
	<g>
		<g>
			<g>
				<g>
					
						<linearGradient id="SVGID_00000018951863547361634160000011901204156441695133_" gradientUnits="userSpaceOnUse" x1="38.7977" y1="218.1778" x2="229.0003" y2="20.7156" gradientTransform="matrix(-1 0 0 1 857.8392 0)">
						<stop  offset="0" style="stop-color:#132277"/>
						<stop  offset="0.9944" style="stop-color:#408DFF"/>
					</linearGradient>
					<polygon style="fill:url(#SVGID_00000018951863547361634160000011901204156441695133_);" points="750,110.981 650.6,11.581 
						617.607,44.575 750,176.968 					"/>
				</g>
				<g>
					
						<linearGradient id="SVGID_00000174568262340231723810000011078484160593220996_" gradientUnits="userSpaceOnUse" x1="223.7357" y1="51.4083" x2="223.7357" y2="4.7481" gradientTransform="matrix(-1 0 0 1 857.8392 0)">
						<stop  offset="0" style="stop-color:#BFD0EF"/>
						<stop  offset="1" style="stop-color:#FFFFFF"/>
					</linearGradient>
					<circle style="fill:url(#SVGID_00000174568262340231723810000011078484160593220996_);" cx="634.104" cy="28.078" r="23.33"/>
				</g>
				<path style="fill:#2F5FEB;" d="M642.873,26.028l-1.986-0.662c-0.153-0.512-0.359-1.008-0.615-1.481l0.937-1.874
					c0.09-0.18,0.055-0.398-0.088-0.54l-1.613-1.613c-0.143-0.143-0.361-0.178-0.54-0.088l-1.874,0.937
					c-0.473-0.256-0.97-0.462-1.481-0.615l-0.662-1.986c-0.064-0.191-0.243-0.32-0.444-0.32h-2.281c-0.201,0-0.38,0.129-0.444,0.32
					l-0.662,1.986c-0.512,0.153-1.008,0.359-1.481,0.615l-1.874-0.937c-0.179-0.09-0.398-0.055-0.54,0.088l-1.613,1.613
					c-0.142,0.142-0.178,0.36-0.088,0.54l0.937,1.874c-0.256,0.473-0.462,0.97-0.615,1.481l-1.986,0.662
					c-0.191,0.064-0.32,0.243-0.32,0.444v2.282c0,0.201,0.129,0.38,0.32,0.444l1.986,0.662c0.153,0.512,0.359,1.008,0.615,1.481
					l-0.937,1.874c-0.09,0.18-0.055,0.398,0.088,0.54l1.613,1.613c0.143,0.143,0.36,0.177,0.54,0.088l1.889-0.944
					c0.327,0.158,0.965,0.457,1.464,0.626l0.665,1.994c0.064,0.191,0.242,0.32,0.444,0.32h2.281c0.201,0,0.38-0.129,0.444-0.32
					l0.665-1.994c0.499-0.169,1.137-0.468,1.464-0.626l1.889,0.944c0.18,0.09,0.398,0.055,0.54-0.088l1.613-1.613
					c0.143-0.142,0.178-0.36,0.088-0.54l-0.937-1.874c0.256-0.473,0.462-0.97,0.615-1.481l1.986-0.662
					c0.191-0.064,0.32-0.243,0.32-0.444v-2.282C643.193,26.271,643.065,26.092,642.873,26.028z M633.365,32.675
					c-2.788,0-5.056-2.268-5.056-5.056c0-2.788,2.268-5.056,5.056-5.056c2.788,0,5.056,2.268,5.056,5.056
					C638.421,30.407,636.153,32.675,633.365,32.675z"/>
			</g>
			<g>
				<path style="fill:#FFFFFF;" d="M616.2,42.839c9.111,9.111,23.883,9.111,32.994,0c8.276-8.276,9.008-21.208,2.25-30.34
					c8.246,9.159,7.987,23.26-0.829,32.076c-9.111,9.111-23.883,9.111-32.994,0c-0.836-0.836-1.568-1.732-2.25-2.654
					C615.646,42.227,615.905,42.544,616.2,42.839z"/>
			</g>
			<g>
				<g>
					<g>
						
							<linearGradient id="SVGID_00000083786424282718864190000001522328634552334976_" gradientUnits="userSpaceOnUse" x1="12.5003" y1="494.0184" x2="332.5839" y2="161.718" gradientTransform="matrix(-1 0 0 1 857.8392 0)">
							<stop  offset="0" style="stop-color:#132277"/>
							<stop  offset="0.9944" style="stop-color:#408DFF"/>
						</linearGradient>
						<polygon style="fill:url(#SVGID_00000083786424282718864190000001522328634552334976_);" points="750,437.34 510.565,197.488 
							557.225,150.827 750,344.02 						"/>
					</g>
					<g>
						
							<linearGradient id="SVGID_00000115484939911896707740000003346156074793870989_" gradientUnits="userSpaceOnUse" x1="323.9445" y1="207.1512" x2="323.9445" y2="141.1635" gradientTransform="matrix(-1 0 0 1 857.8392 0)">
							<stop  offset="0" style="stop-color:#BFD0EF"/>
							<stop  offset="1" style="stop-color:#FFFFFF"/>
						</linearGradient>
						
							<circle style="fill:url(#SVGID_00000115484939911896707740000003346156074793870989_);" cx="533.895" cy="174.157" r="32.994"/>
					</g>
					<path style="fill:#2F5FEB;" d="M551.673,179.031v-5.284c0.067-0.094,0.108-0.208,0.108-0.332v-6.148
						c0-0.315-0.255-0.57-0.57-0.57c-1.003,0-1.818-1.029-1.818-2.294c0-1.265,0.816-2.294,1.818-2.294
						c0.315,0,0.57-0.255,0.57-0.57v-6.149c0-0.315-0.255-0.57-0.57-0.57h-5.643c-0.309-1.36-1.703-2.388-3.37-2.388
						c-1.668,0-3.061,1.029-3.371,2.388h-5.643c-0.003,0-0.007,0.001-0.01,0.001c-0.003,0-0.007-0.001-0.01-0.001h-6.149
						c-0.315,0-0.57,0.255-0.57,0.57c0,1.003-1.029,1.819-2.294,1.819c-1.265,0-2.294-0.816-2.294-1.819
						c0-0.315-0.255-0.57-0.57-0.57h-6.149c-0.315,0-0.57,0.255-0.57,0.57v5.643c-1.359,0.31-2.388,1.703-2.388,3.371
						c0,1.668,1.029,3.061,2.388,3.371v5.284c-0.067,0.094-0.108,0.208-0.108,0.332v6.148c0,0.315,0.255,0.57,0.57,0.57
						c1.003,0,1.818,1.029,1.818,2.294s-0.816,2.294-1.818,2.294c-0.315,0-0.57,0.255-0.57,0.57v6.149c0,0.315,0.255,0.57,0.57,0.57
						h5.643c0.309,1.36,1.703,2.388,3.37,2.388c1.668,0,3.061-1.029,3.371-2.388h5.643c0.003,0,0.007-0.001,0.01-0.001
						c0.003,0,0.007,0.001,0.01,0.001h6.149c0.315,0,0.57-0.255,0.57-0.57c0-1.003,1.029-1.819,2.294-1.819
						c1.265,0,2.294,0.816,2.294,1.819c0,0.315,0.255,0.57,0.57,0.57h6.149c0.315,0,0.57-0.255,0.57-0.57v-5.643
						c1.359-0.31,2.389-1.703,2.389-3.371S553.033,179.341,551.673,179.031z M533.755,155.96h5.578c0.315,0,0.57-0.255,0.57-0.57
						c0-1.002,1.029-1.818,2.294-1.818c1.265,0,2.294,0.816,2.294,1.818c0,0.315,0.255,0.57,0.57,0.57h5.579v5.072
						c-1.359,0.31-2.388,1.703-2.388,3.371c0,1.668,1.029,3.061,2.388,3.371v5.045h-5.687c-0.315,0-0.57,0.255-0.57,0.57
						c0,1.002-1.029,1.818-2.294,1.818c-0.219,0-0.431-0.026-0.632-0.072c-0.903-0.245-1.555-0.922-1.555-1.72
						c0-0.286-0.212-0.521-0.488-0.562c-0.06-0.021-0.123-0.035-0.19-0.035h-5.471v-5.045c1.359-0.31,2.388-1.703,2.388-3.371
						c0-1.668-1.029-3.061-2.388-3.371V155.96z M532.487,190.845h-5.578c-0.315,0-0.57,0.255-0.57,0.57
						c0,1.002-1.029,1.818-2.294,1.818c-1.265,0-2.294-0.816-2.294-1.818c0-0.315-0.255-0.57-0.57-0.57h-5.579v-5.072
						c1.359-0.31,2.388-1.703,2.388-3.371s-1.029-3.061-2.388-3.371v-5.045h5.687c0.315,0,0.57-0.255,0.57-0.57
						c0-1.002,1.029-1.818,2.294-1.818c0.219,0,0.431,0.026,0.632,0.072c0.903,0.245,1.555,0.922,1.555,1.72
						c0,0.286,0.212,0.521,0.487,0.562c0.06,0.021,0.123,0.035,0.191,0.035h5.471v5.045c-1.359,0.31-2.388,1.703-2.388,3.371
						s1.029,3.061,2.388,3.371V190.845z"/>
				</g>
				<g>
					<path style="fill:#FFFFFF;" d="M509.144,195.751c12.885,12.885,33.775,12.885,46.66,0c11.824-11.824,12.789-30.385,2.912-43.32
						c11.365,12.96,10.874,32.692-1.491,45.056c-12.885,12.885-33.775,12.885-46.66,0c-1.061-1.061-2.026-2.18-2.912-3.341
						C508.131,194.692,508.623,195.23,509.144,195.751z"/>
				</g>
			</g>
			<g>
				<g>
					
						<linearGradient id="SVGID_00000146492601371669630690000016032653404106636931_" gradientUnits="userSpaceOnUse" x1="103.8102" y1="498.2575" x2="294.0127" y2="300.7953" gradientTransform="matrix(-1 0 0 1 857.8392 0)">
						<stop  offset="0" style="stop-color:#132277"/>
						<stop  offset="0.9944" style="stop-color:#408DFF"/>
					</linearGradient>
					<polygon style="fill:url(#SVGID_00000146492601371669630690000016032653404106636931_);" points="584.962,292.264 750,457.302 
						750,500 726.711,500 551.968,325.258 					"/>
				</g>
				<g>
					
						<linearGradient id="SVGID_00000005977969913112736290000014006252342740243090_" gradientUnits="userSpaceOnUse" x1="289.3739" y1="332.0908" x2="289.3739" y2="285.4306" gradientTransform="matrix(-1 0 0 1 857.8392 0)">
						<stop  offset="0" style="stop-color:#BFD0EF"/>
						<stop  offset="1" style="stop-color:#FFFFFF"/>
					</linearGradient>
					<circle style="fill:url(#SVGID_00000005977969913112736290000014006252342740243090_);" cx="568.465" cy="308.761" r="23.33"/>
				</g>
			</g>
			<g>
				<g>
					
						<linearGradient id="SVGID_00000171690538150900054300000011294692015374423699_" gradientUnits="userSpaceOnUse" x1="92.3666" y1="595.2838" x2="287.7462" y2="392.4469" gradientTransform="matrix(-1 0 0 1 857.8392 0)">
						<stop  offset="0" style="stop-color:#132277"/>
						<stop  offset="0.9944" style="stop-color:#408DFF"/>
					</linearGradient>
					<polygon style="fill:url(#SVGID_00000171690538150900054300000011294692015374423699_);" points="609.497,500 542.794,433.297 
						608.215,367.876 740.339,500 					"/>
				</g>
				<g>
					
						<linearGradient id="SVGID_00000084492622085950517340000013021047936788729779_" gradientUnits="userSpaceOnUse" x1="282.3349" y1="446.8456" x2="282.3349" y2="354.3268" gradientTransform="matrix(-1 0 0 1 857.8392 0)">
						<stop  offset="0" style="stop-color:#BFD0EF"/>
						<stop  offset="1" style="stop-color:#FFFFFF"/>
					</linearGradient>
					
						<circle style="fill:url(#SVGID_00000084492622085950517340000013021047936788729779_);" cx="575.504" cy="400.586" r="46.259"/>
				</g>
			</g>
			<g>
				<g>
					
						<linearGradient id="SVGID_00000167395412154704554750000015953574828485107329_" gradientUnits="userSpaceOnUse" x1="-1.2196" y1="305.204" x2="194.16" y2="102.3671" gradientTransform="matrix(-1 0 0 1 857.8392 0)">
						<stop  offset="0" style="stop-color:#132277"/>
						<stop  offset="0.9944" style="stop-color:#408DFF"/>
					</linearGradient>
					<polygon style="fill:url(#SVGID_00000167395412154704554750000015953574828485107329_);" points="750,255.25 637.188,142.439 
						702.609,77.018 750,124.409 					"/>
				</g>
				<g>
					
						<linearGradient id="SVGID_00000151513313379041399070000004890211141220950206_" gradientUnits="userSpaceOnUse" x1="187.9408" y1="155.9877" x2="187.9408" y2="63.4688" gradientTransform="matrix(-1 0 0 1 857.8392 0)">
						<stop  offset="0" style="stop-color:#BFD0EF"/>
						<stop  offset="1" style="stop-color:#FFFFFF"/>
					</linearGradient>
					
						<circle style="fill:url(#SVGID_00000151513313379041399070000004890211141220950206_);" cx="669.898" cy="109.728" r="46.259"/>
				</g>
			</g>
			<g>
				<g>
					
						<linearGradient id="SVGID_00000154412716028993727120000011972286936744025764_" gradientUnits="userSpaceOnUse" x1="46.4561" y1="412.6295" x2="241.8358" y2="209.7926" gradientTransform="matrix(-1 0 0 1 857.8392 0)">
						<stop  offset="0" style="stop-color:#132277"/>
						<stop  offset="0.9944" style="stop-color:#408DFF"/>
					</linearGradient>
					<polygon style="fill:url(#SVGID_00000154412716028993727120000011972286936744025764_);" points="750,411.253 589.053,250.306 
						654.474,184.885 750,280.411 					"/>
				</g>
				<g>
					
						<linearGradient id="SVGID_00000158717512542683208780000012653273125535170182_" gradientUnits="userSpaceOnUse" x1="236.0755" y1="263.8552" x2="236.0755" y2="171.3363" gradientTransform="matrix(-1 0 0 1 857.8392 0)">
						<stop  offset="0" style="stop-color:#BFD0EF"/>
						<stop  offset="1" style="stop-color:#FFFFFF"/>
					</linearGradient>
					
						<circle style="fill:url(#SVGID_00000158717512542683208780000012653273125535170182_);" cx="621.764" cy="217.596" r="46.259"/>
				</g>
				<g>
					<g>
						<path style="fill:#2F5FEB;" d="M648.423,218.925c-2.02-7.564-4.509-16.885,1.187-24.326l-6.223-5.479
							c-13.587,4.326-27.916,4.317-42.615-0.021l-6.687,5.58c6.868,7.067,3.813,16.666,1.331,24.462
							c-1.08,3.392-2.099,6.595-2.099,8.982c0,5.47,17.169,16.142,28.448,21.85c11.274-5.588,28.434-16.157,28.434-21.85
							C650.197,225.57,649.336,222.342,648.423,218.925z M641.38,219.538C641.38,219.538,641.38,219.538,641.38,219.538
							c0,0.649-0.035,1.293-0.098,1.932c-0.021,0.21-0.061,0.414-0.088,0.622c-0.056,0.426-0.112,0.852-0.195,1.272
							c-0.045,0.226-0.107,0.444-0.159,0.667c-0.093,0.397-0.187,0.794-0.305,1.184c-0.063,0.207-0.139,0.408-0.208,0.612
							c-0.135,0.398-0.274,0.794-0.434,1.183c-0.074,0.179-0.158,0.353-0.237,0.53c-0.18,0.402-0.367,0.799-0.573,1.189
							c-0.082,0.155-0.172,0.304-0.258,0.456c-0.224,0.395-0.457,0.785-0.708,1.165c-0.092,0.139-0.19,0.274-0.286,0.411
							c-0.262,0.374-0.533,0.742-0.822,1.099c-0.107,0.133-0.219,0.26-0.33,0.39c-0.182,0.213-0.351,0.435-0.542,0.641
							c-0.034,0.037-0.081,0.052-0.118,0.085c-2.381,2.526-5.414,4.42-8.837,5.407c-0.063,0.027-0.125,0.056-0.193,0.075
							c-0.988,0.272-1.999,0.457-3.021,0.572c-0.141,0.016-0.283,0.03-0.425,0.043c-0.593,0.054-1.188,0.091-1.786,0.091
							c-0.676,0-1.345-0.034-2.004-0.102c-9.883-1.007-17.62-9.378-17.62-19.522c0,0,0,0,0,0s0,0,0,0
							c0-10.144,7.738-18.515,17.62-19.522c0.659-0.067,1.327-0.102,2.004-0.102c0.648,0,1.292,0.035,1.931,0.098
							c0.214,0.021,0.421,0.062,0.632,0.089c0.423,0.055,0.845,0.111,1.261,0.193c0.229,0.045,0.45,0.108,0.676,0.161
							c0.394,0.093,0.788,0.186,1.175,0.303c0.21,0.064,0.413,0.14,0.62,0.211c0.395,0.134,0.788,0.271,1.173,0.43
							c0.183,0.076,0.359,0.161,0.539,0.241c0.399,0.178,0.793,0.364,1.18,0.569c0.157,0.084,0.309,0.174,0.463,0.262
							c0.393,0.223,0.78,0.454,1.158,0.705c0.141,0.093,0.277,0.192,0.415,0.289c0.373,0.261,0.74,0.532,1.096,0.82
							c0.133,0.108,0.261,0.22,0.392,0.331c0.213,0.181,0.434,0.35,0.64,0.541c0.037,0.034,0.052,0.081,0.084,0.118
							c2.525,2.38,4.419,5.413,5.407,8.836c0.027,0.063,0.056,0.126,0.075,0.194c0.273,0.989,0.457,2.001,0.572,3.024
							c0.016,0.14,0.03,0.28,0.042,0.421C641.343,218.343,641.38,218.939,641.38,219.538
							C641.38,219.538,641.38,219.538,641.38,219.538z"/>
					</g>
					<path style="fill:#2F5FEB;" d="M610.184,220.359c-0.569-0.569-1.49-0.569-2.058,0c-0.569,0.569-0.569,1.49,0,2.058l7.869,7.869
						c0.284,0.284,0.657,0.426,1.029,0.426c0.372,0,0.745-0.142,1.029-0.426l16.663-16.147c0.569-0.569,0.569-1.49,0-2.058
						c-0.569-0.569-1.49-0.569-2.058,0l-15.634,15.118L610.184,220.359z"/>
				</g>
			</g>
			<g>
				<g>
					
						<linearGradient id="SVGID_00000111161003681708955590000002267051278153036933_" gradientUnits="userSpaceOnUse" x1="83.0603" y1="446.4739" x2="222.4118" y2="301.8037" gradientTransform="matrix(-1 0 0 1 857.8392 0)">
						<stop  offset="0" style="stop-color:#132277"/>
						<stop  offset="0.9944" style="stop-color:#408DFF"/>
					</linearGradient>
					<polygon style="fill:url(#SVGID_00000111161003681708955590000002267051278153036933_);" points="750,464.853 616.023,330.875 
						662.683,284.215 750,371.532 					"/>
				</g>
				<g>
					
						<linearGradient id="SVGID_00000065777066119837746800000015990020548972829346_" gradientUnits="userSpaceOnUse" x1="218.4863" y1="340.5392" x2="218.4863" y2="274.5515" gradientTransform="matrix(-1 0 0 1 857.8392 0)">
						<stop  offset="0" style="stop-color:#BFD0EF"/>
						<stop  offset="1" style="stop-color:#FFFFFF"/>
					</linearGradient>
					
						<circle style="fill:url(#SVGID_00000065777066119837746800000015990020548972829346_);" cx="639.353" cy="307.545" r="32.994"/>
				</g>
				<g>
					<path style="fill:#FFFFFF;" d="M550.548,323.521c9.111,9.111,23.883,9.111,32.994,0c8.276-8.276,9.008-21.208,2.25-30.34
						c8.246,9.159,7.987,23.26-0.829,32.076c-9.111,9.111-23.883,9.111-32.994,0c-0.836-0.836-1.568-1.732-2.25-2.654
						C549.994,322.91,550.253,323.226,550.548,323.521z"/>
				</g>
				<g>
					<path style="fill:#FFFFFF;" d="M541.373,431.56c18.065,18.065,47.355,18.065,65.421,0
						c16.681-16.681,17.946-42.924,3.823-61.072c15.611,18.175,14.819,45.588-2.402,62.809c-18.065,18.065-47.355,18.065-65.421,0
						c-1.385-1.385-2.65-2.842-3.823-4.349C539.737,429.839,540.529,430.715,541.373,431.56z"/>
				</g>
				<g>
					<path style="fill:#FFFFFF;" d="M635.767,140.702c18.065,18.065,47.355,18.065,65.421,0
						c16.681-16.681,17.946-42.925,3.822-61.072c15.611,18.175,14.82,45.588-2.401,62.809c-18.065,18.065-47.355,18.065-65.421,0
						c-1.385-1.385-2.65-2.842-3.823-4.349C634.131,138.981,634.923,139.858,635.767,140.702z"/>
				</g>
				<g>
					<path style="fill:#FFFFFF;" d="M587.633,248.57c18.065,18.065,47.355,18.065,65.421,0
						c16.681-16.681,17.946-42.924,3.823-61.072c15.611,18.175,14.819,45.587-2.402,62.808c-18.065,18.065-47.355,18.065-65.421,0
						c-1.385-1.385-2.65-2.842-3.823-4.349C585.996,246.849,586.788,247.725,587.633,248.57z"/>
				</g>
				<g>
					<path style="fill:#FFFFFF;" d="M614.602,329.139c12.885,12.885,33.775,12.885,46.66,0
						c11.824-11.824,12.789-30.385,2.912-43.319c11.365,12.96,10.873,32.691-1.491,45.055c-12.885,12.885-33.775,12.885-46.66,0
						c-1.061-1.061-2.026-2.18-2.912-3.341C613.59,328.08,614.081,328.618,614.602,329.139z"/>
				</g>
			</g>
		</g>
		<path style="fill:#2F5FEB;" d="M562.622,316.937c0,0.009-0.001,0.019-0.001,0.028c-0.017,0.542-0.03,1.109-0.03,1.706
			c0,3.126,2.646,5.67,5.898,5.67c3.251,0,5.897-2.539,5.897-5.659c0-1.687,0.13-3.319,0.32-4.778
			c0.062-0.156,0.084-0.325,0.066-0.495c0.373-2.616,0.926-4.58,1.226-5.103c0.659-1.149,2.022-4.449,1.778-6.777
			c-0.453-4.328-3.92-7.814-8.243-8.289c-2.663-0.293-5.318,0.556-7.295,2.327c-1.978,1.773-3.113,4.312-3.113,6.967
			c0,2.002,0.877,3.632,2.721,6.318c1.078,1.57,0.988,3.438,0.853,6.266C562.672,315.681,562.643,316.291,562.622,316.937z
			 M568.473,322.987c-0.902,0-1.752-0.262-2.471-0.705c0.658,0.094,1.398,0.159,2.238,0.159c0.842,0,1.776-0.062,2.797-0.213
			C570.299,322.705,569.414,322.987,568.473,322.987z M573.068,318.678c0,0.197-0.02,0.39-0.049,0.581
			c-5.517,1.477-7.947-0.014-8.326-0.202c-0.015-0.127-0.817-0.235-0.817-0.392c0-0.11,0.003-0.214,0.003-0.323
			c1.03,0.255,2.486,0.498,4.295,0.498c1.425,0,3.074-0.158,4.9-0.573C573.073,318.404,573.068,318.539,573.068,318.678z
			 M573.172,315.668c-4.491,1.165-7.809,0.518-9.227,0.099c0.018-0.432,0.037-0.853,0.057-1.251c1.44,0.42,2.931,0.64,4.455,0.64
			c1.656,0,3.267-0.254,4.814-0.746C573.233,314.823,573.2,315.242,573.172,315.668z"/>
		<g>
			<path style="fill:#2F5FEB;" d="M652.08,303.38c0.015-0.027,0.029-0.053,0.042-0.081c0.013-0.028,0.023-0.057,0.033-0.086
				c0.011-0.033,0.021-0.065,0.028-0.099c0.003-0.014,0.009-0.026,0.011-0.04l2.865-16.006c0.063-0.348-0.072-0.703-0.35-0.924
				s-0.654-0.27-0.979-0.129l-14.926,6.452c-0.013,0.006-0.024,0.014-0.037,0.02c-0.031,0.015-0.06,0.032-0.09,0.05
				c-0.026,0.017-0.052,0.034-0.077,0.052c-0.024,0.018-0.046,0.038-0.069,0.059c-0.026,0.024-0.05,0.049-0.073,0.075
				c-0.009,0.01-0.02,0.018-0.028,0.029l-21.017,26.528c-0.256,0.323-0.278,0.773-0.054,1.12c1.521,2.356,3.336,4.369,5.432,6.03
				c2.096,1.66,4.472,2.968,7.113,3.909c0.388,0.139,0.821,0.014,1.077-0.309l21.017-26.528c0.009-0.011,0.014-0.023,0.022-0.034
				C652.044,303.44,652.063,303.41,652.08,303.38z M648.924,290.19c0.4,0.579,0.862,1.083,1.392,1.503
				c0.529,0.419,1.126,0.754,1.781,1.01l-1.512,8.448l-9.538-7.556L648.924,290.19z M645.707,299.743l-13.496,17.036
				c-0.845-0.628-1.664-1.276-2.456-1.948l13.495-17.034L645.707,299.743z M639.344,294.702l2.398,1.899l-13.43,16.953
				c-0.754-0.696-1.48-1.42-2.188-2.164L639.344,294.702z M634.314,322.73c-3.858-2.204-7.4-5.012-10.549-8.363l1.152-1.454
				c1.527,1.59,3.147,3.075,4.891,4.456c1.76,1.394,3.649,2.685,5.666,3.896L634.314,322.73z M636.679,319.744
				c-1-0.594-1.967-1.208-2.899-1.846l13.436-16.96l2.68,2.123L636.679,319.744z"/>
		</g>
		<path style="fill:#2F5FEB;" d="M612.825,411.486c0-8.069-5.418-9.161-9.003-9.884l-0.416-0.085
			c-0.957-0.195-1.199-0.449-1.219-0.449c0,0,0,0-0.001,0c0.002-0.046,0.047-0.184,0.175-0.367c0.065-0.076,0.123-0.148,0.146-0.181
			c0.024-0.026,0.047-0.054,0.069-0.083c1.704-2.166,2.761-5.422,2.761-8.503c0-5.737-3.619-8.305-7.206-8.305
			s-7.206,2.568-7.206,8.305c0,3.242,1.195,6.713,3.028,8.826c0.093,0.112,0.147,0.245,0.175,0.214
			c-0.002,0.003-0.23,0.309-1.377,0.543l-0.414,0.084c-1.942,0.391-4.116,0.842-5.887,2.213c-0.293-0.06-0.583-0.119-0.867-0.177
			l-0.683-0.139c-2.151-0.44-2.511-1.094-2.57-1.285c-0.11-0.354,0.146-0.862,0.398-1.225c2.898-3.383,4.723-8.817,4.723-13.88
			c0-8.846-5.53-12.806-11.01-12.806s-11.009,3.96-11.009,12.806c0,5.12,1.867,10.621,4.823,13.994
			c0.159,0.21,0.463,0.69,0.355,1.035c-0.128,0.407-0.93,0.978-2.8,1.36l-0.683,0.139c-0.209,0.042-0.421,0.085-0.635,0.129
			c-1.76-1.334-3.906-1.778-5.824-2.165l-0.415-0.084c-0.957-0.195-1.199-0.449-1.219-0.449c0,0,0,0-0.001,0
			c0.003-0.046,0.047-0.185,0.177-0.369c0.063-0.074,0.12-0.144,0.146-0.179c0.024-0.026,0.047-0.054,0.069-0.083
			c1.703-2.165,2.761-5.422,2.761-8.503c0-5.737-3.618-8.305-7.205-8.305c-3.586,0-7.206,2.568-7.206,8.305
			c0,3.242,1.195,6.714,3.028,8.826c0.094,0.112,0.149,0.255,0.175,0.214c-0.002,0.003-0.229,0.309-1.376,0.543l-0.416,0.085
			c-3.586,0.723-9.004,1.815-9.004,9.884v0.233c0,0.265,0.088,0.521,0.249,0.731c0.357,0.462,2.629,2.717,12.887,2.844
			c-0.182,1.128-0.285,2.366-0.285,3.742v0.381c0,0.334,0.14,0.653,0.386,0.879c0.469,0.432,5.097,4.218,23.023,4.218
			c17.972,0,22.456-4.179,22.908-4.655c0.211-0.222,0.328-0.517,0.328-0.823c0-1.378-0.103-2.617-0.286-3.745
			c10.151-0.193,12.822-2.687,13.102-2.982C612.707,412.086,612.825,411.791,612.825,411.486z M567.825,387.109
			c0-6.327,3.383-10.415,8.618-10.415s8.619,4.088,8.619,10.415c0,4.617-1.625,9.175-3.889,11.997
			c-0.059,0.067-0.133,0.154-0.216,0.259c-1.36,1.6-2.93,2.582-4.514,2.582C572.094,401.947,567.825,394.597,567.825,387.109z
			 M576.444,422.122c-14.261,0-19.638-2.507-21.017-3.329c0.093-10.376,6.235-11.614,12.175-12.812l0.69-0.14
			c2.398-0.49,3.851-1.348,4.442-2.607c1.149,0.702,2.394,1.103,3.71,1.103c1.324,0,2.576-0.406,3.73-1.115
			c0.551,1.269,1.97,2.153,4.249,2.619l0.69,0.14c5.876,1.185,11.949,2.41,12.17,12.481
			C595.983,419.347,590.764,422.122,576.444,422.122z"/>
		<g>
			<path style="fill:#2F5FEB;" d="M695.253,85.335c-0.005-0.032-0.009-0.063-0.017-0.093c-0.008-0.033-0.019-0.064-0.03-0.096
				c-0.011-0.031-0.022-0.061-0.035-0.091c-0.014-0.03-0.03-0.058-0.047-0.087c-0.017-0.029-0.034-0.057-0.053-0.084
				c-0.019-0.026-0.04-0.05-0.062-0.075c-0.023-0.026-0.047-0.052-0.072-0.075c-0.01-0.009-0.018-0.021-0.029-0.03
				c-0.014-0.012-0.03-0.02-0.045-0.031c-0.029-0.022-0.058-0.042-0.088-0.061c-0.027-0.016-0.054-0.031-0.082-0.045
				c-0.032-0.016-0.064-0.029-0.097-0.041c-0.029-0.011-0.059-0.02-0.089-0.028c-0.034-0.009-0.068-0.016-0.103-0.022
				c-0.032-0.005-0.064-0.008-0.096-0.01c-0.02-0.001-0.039-0.006-0.06-0.006h-6.492c-0.563,0-1.02,0.457-1.02,1.02
				c0,0.563,0.456,1.02,1.02,1.02h4.22c-20.696,22.421-54.4,21.408-54.744,21.396c-0.571-0.011-1.036,0.418-1.058,0.98
				s0.417,1.036,0.979,1.058c0.032,0.001,0.337,0.011,0.882,0.011c5.531,0,35.743-0.993,55.193-21.792v3.694
				c0,0.563,0.456,1.02,1.02,1.02c0.563,0,1.02-0.457,1.02-1.02v-6.367c0-0.013-0.003-0.026-0.004-0.039
				C695.262,85.407,695.258,85.371,695.253,85.335z"/>
			<path style="fill:#2F5FEB;" d="M637.193,131.571h7.491c0.563,0,1.02-0.457,1.02-1.02v-17.797c0-0.563-0.456-1.02-1.02-1.02
				h-7.491c-0.563,0-1.02,0.457-1.02,1.02v17.797C636.173,131.115,636.63,131.571,637.193,131.571z"/>
			<path style="fill:#2F5FEB;" d="M656.045,131.571c0.563,0,1.02-0.457,1.02-1.02v-18.977c0-0.298-0.13-0.582-0.357-0.775
				c-0.226-0.193-0.527-0.279-0.821-0.232l-7.491,1.18c-0.496,0.078-0.861,0.505-0.861,1.007v17.797c0,0.563,0.456,1.02,1.02,1.02
				H656.045z"/>
			<path style="fill:#2F5FEB;" d="M667.406,131.571c0.563,0,1.02-0.457,1.02-1.02v-21.621c0-0.318-0.148-0.617-0.401-0.81
				c-0.252-0.194-0.581-0.258-0.887-0.174l-7.491,2.039c-0.444,0.121-0.752,0.524-0.752,0.984v19.581c0,0.563,0.456,1.02,1.02,1.02
				H667.406z"/>
			<path style="fill:#2F5FEB;" d="M678.767,131.571c0.563,0,1.02-0.457,1.02-1.02V103.96c0-0.346-0.176-0.668-0.466-0.856
				c-0.291-0.188-0.656-0.214-0.972-0.074l-7.491,3.371c-0.366,0.165-0.601,0.529-0.601,0.93v23.221c0,0.563,0.456,1.02,1.02,1.02
				H678.767z"/>
			<path style="fill:#2F5FEB;" d="M690.589,95.684c-0.343-0.174-0.754-0.141-1.064,0.087l-7.491,5.494
				c-0.262,0.193-0.417,0.498-0.417,0.822v28.465c0,0.563,0.456,1.02,1.02,1.02h7.491c0.563,0,1.02-0.457,1.02-1.02V96.593
				C691.148,96.209,690.932,95.857,690.589,95.684z"/>
		</g>
	</g>
</g>
</svg>
