<?xml version="1.0" encoding="utf-8"?>
<!-- Generator: Adobe Illustrator 27.5.0, SVG Export Plug-In . SVG Version: 6.00 Build 0)  -->
<svg version="1.1" xmlns="http://www.w3.org/2000/svg" xmlns:xlink="http://www.w3.org/1999/xlink" x="0px" y="0px"
	 viewBox="0 0 750 500" style="enable-background:new 0 0 750 500;" xml:space="preserve">
<g id="BACKGROUND">
	<linearGradient id="SVGID_1_" gradientUnits="userSpaceOnUse" x1="0" y1="250" x2="750" y2="250">
		<stop  offset="0" style="stop-color:#05194D"/>
		<stop  offset="0.4428" style="stop-color:#05194D"/>
		<stop  offset="1" style="stop-color:#193C87"/>
	</linearGradient>
	<rect style="fill:url(#SVGID_1_);" width="750" height="500"/>
</g>
<g id="OBJECTS">
	<g>
		<defs>
			<rect id="SVGID_00000077301115490740415740000003813329275396739721_" width="750" height="500"/>
		</defs>
		<clipPath id="SVGID_00000023975238390609329780000013761270071640361619_">
			<use xlink:href="#SVGID_00000077301115490740415740000003813329275396739721_"  style="overflow:visible;"/>
		</clipPath>
		<g style="clip-path:url(#SVGID_00000023975238390609329780000013761270071640361619_);">
			<circle style="fill:#FFFFFF;" cx="229.96" cy="276.673" r="177.524"/>
			<g>
				
					<linearGradient id="SVGID_00000135671371254801345420000006379351915441390987_" gradientUnits="userSpaceOnUse" x1="60.692" y1="273.3718" x2="113.4642" y2="273.3718">
					<stop  offset="0.1677" style="stop-color:#FD854D"/>
					<stop  offset="1" style="stop-color:#FF4341"/>
				</linearGradient>
				<path style="fill:url(#SVGID_00000135671371254801345420000006379351915441390987_);" d="M66.436,319.002
					c-3.528-13.577-5.744-26.816-5.744-41.482c0-17.196,2.748-34.134,7.545-49.779l0,0l45.227,48.876L66.436,319.002L66.436,319.002
					z"/>
				
					<linearGradient id="SVGID_00000143595364207701427520000007835394403080764858_" gradientUnits="userSpaceOnUse" x1="163.2855" y1="433.7329" x2="230.6336" y2="317.0826">
					<stop  offset="0.1655" style="stop-color:#0088CC"/>
					<stop  offset="0.7297" style="stop-color:#014BC4"/>
				</linearGradient>
				<path style="fill:url(#SVGID_00000143595364207701427520000007835394403080764858_);" d="M113.464,276.617
					c0,65.218,52.834,117.99,118.052,117.99c30.578,0,58.109-12.289,79.082-31.358l34.207,38.56
					c-29.994,27.146-69.745,43.701-113.289,43.701c-39.889,0-77.838-13.006-107.156-36.206
					c-28.389-22.465-48.632-54.544-57.924-90.303L113.464,276.617z"/>
				
					<linearGradient id="SVGID_00000076601769277248729440000006829995301909854119_" gradientUnits="userSpaceOnUse" x1="231.88" y1="275.805" x2="231.88" y2="220.305">
					<stop  offset="0.0024" style="stop-color:#FF4341"/>
					<stop  offset="0.7278" style="stop-color:#FD854D"/>
				</linearGradient>
				<path style="fill:url(#SVGID_00000076601769277248729440000006829995301909854119_);" d="M195.837,233.167
					c10.807-8.988,23.074-12.862,36.607-12.862c13.878,0,25.333,4.833,35.48,13.48l-35.126,42.02L195.837,233.167z"/>
				
					<linearGradient id="SVGID_00000170257519502335994050000016349412591181911989_" gradientUnits="userSpaceOnUse" x1="238.8215" y1="268.6206" x2="147.7187" y2="359.7235">
					<stop  offset="0.0039" style="stop-color:#05194D"/>
					<stop  offset="1" style="stop-color:#193C87"/>
				</linearGradient>
				<path style="fill:url(#SVGID_00000170257519502335994050000016349412591181911989_);" d="M155.964,185.763
					c0,0-0.505,0.422-0.756,0.635c-25.557,21.661-41.779,53.997-41.779,90.123c0,65.218,52.869,118.087,118.087,118.087
					c30.578,0,58.109-12.289,79.082-31.358l-41.076-45.41c-10.009,9.213-23.362,14.846-38.006,14.846
					c-30.97,0-56.166-25.195-56.166-56.165c0-17.151,7.727-32.531,19.883-42.842c0.202-0.172,0.632-0.522,0.632-0.522
					L155.964,185.763z"/>
				
					<linearGradient id="SVGID_00000164511835406944421120000016267489042013475752_" gradientUnits="userSpaceOnUse" x1="232.3779" y1="107.6968" x2="232.3779" y2="186.5983">
					<stop  offset="0.2848" style="stop-color:#00C6F7"/>
					<stop  offset="1" style="stop-color:#0087FB"/>
				</linearGradient>
				<path style="fill:url(#SVGID_00000164511835406944421120000016267489042013475752_);" d="M123.552,147.053
					c29.347-24.558,67.126-39.356,108.297-39.356c41.667,0,79.859,15.158,109.354,40.248l-33.143,38.653
					c-20.613-17.564-46.747-27.46-75.951-27.46c-28.737,0-55.671,9.561-76.146,26.624L123.552,147.053z"/>
				
					<linearGradient id="SVGID_00000083077089139243561880000007213487139603267502_" gradientUnits="userSpaceOnUse" x1="202.1712" y1="324.6212" x2="240.1884" y2="258.7734">
					<stop  offset="0.2848" style="stop-color:#00C6F7"/>
					<stop  offset="1" style="stop-color:#0087FB"/>
				</linearGradient>
				<path style="fill:url(#SVGID_00000083077089139243561880000007213487139603267502_);" d="M269.501,317.882
					c-10.009,9.213-23.362,14.846-38.006,14.846c-30.97,0-56.74-24.953-56.74-55.923c0-17.437,8.573-33.328,21.081-43.638
					L269.501,317.882z"/>
				
					<linearGradient id="SVGID_00000106130685523137161260000007405860393007007363_" gradientUnits="userSpaceOnUse" x1="267.7613" y1="274.8819" x2="350.0312" y2="274.8819">
					<stop  offset="0" style="stop-color:#0087FB"/>
					<stop  offset="0.5066" style="stop-color:#00C6F7"/>
				</linearGradient>
				<path style="fill:url(#SVGID_00000106130685523137161260000007405860393007007363_);" d="M310.598,363.25
					c23.758-21.601,39.433-51.18,39.433-85.819c0-36.014-16.621-69.257-42.042-90.917l-40.228,47.313
					c12.084,10.31,19.103,25.678,19.103,42.77c0,16.326-6.346,31.013-17.505,41.285L310.598,363.25z"/>
				
					<linearGradient id="SVGID_00000085229570182270297410000010992736942273464752_" gradientUnits="userSpaceOnUse" x1="232.503" y1="-0.0263" x2="232.503" y2="147.945">
					<stop  offset="0.5239" style="stop-color:#DFEDF4"/>
					<stop  offset="0.671" style="stop-color:#BEDBF0"/>
					<stop  offset="1" style="stop-color:#61A8E5"/>
				</linearGradient>
				<path style="fill:url(#SVGID_00000085229570182270297410000010992736942273464752_);" d="M0.027,0l96.206,114.932l1.304,1.558
					l26.016,30.563c29.347-24.558,66.387-39.332,107.558-39.332c41.667,0,80.599,15.133,110.093,40.223l25.906-30.973l24.293-29.042
					l73.576-87.956"/>
				
					<linearGradient id="SVGID_00000003798021363229331680000000396592667547329158_" gradientUnits="userSpaceOnUse" x1="341.2035" y1="274.6996" x2="480.634" y2="274.6996">
					<stop  offset="0" style="stop-color:#0052CB"/>
					<stop  offset="0.6157" style="stop-color:#007FC9"/>
				</linearGradient>
				<path style="fill:url(#SVGID_00000003798021363229331680000000396592667547329158_);" d="M397.483,461.602
					c50.255-45.587,83.151-110.639,83.151-183.674c0-76.173-35.058-144.422-89.119-190.132l-50.311,60.148
					c36.467,31.021,60.637,77.727,60.637,129.242c0,49.637-22.845,93.678-57.036,124.623L397.483,461.602z"/>
				
					<linearGradient id="SVGID_00000063598940947961588200000017854361410709396869_" gradientUnits="userSpaceOnUse" x1="143.8094" y1="516.7731" x2="243.8388" y2="343.5172">
					<stop  offset="0" style="stop-color:#102D6E"/>
					<stop  offset="0.9983" style="stop-color:#051040"/>
				</linearGradient>
				<path style="fill:url(#SVGID_00000063598940947961588200000017854361410709396869_);" d="M66.436,319.002
					c18.888,72.688,86.757,125.553,163.59,125.886c43.545,0,84.785-15.932,114.778-43.078l52.678,59.792
					c-18.195,16.504-38.833,30.361-61.301,40.953c-32.134,15.15-68.01,23.625-105.827,23.625c-40.756,0-79.734-9.336-114.299-26.163
					c-20.959-10.204-40.294-23.162-57.418-38.464c-24.772-22.135-44.916-49.175-58.653-79.874l18.852-17.782l13.571-12.8
					L66.436,319.002z"/>
				
					<linearGradient id="SVGID_00000081637020568158444090000016410767865158083256_" gradientUnits="userSpaceOnUse" x1="329.2034" y1="282.3499" x2="419.534" y2="282.3499">
					<stop  offset="0.0024" style="stop-color:#FF4341"/>
					<stop  offset="0.4533" style="stop-color:#FD854D"/>
				</linearGradient>
				<path style="fill:url(#SVGID_00000081637020568158444090000016410767865158083256_);" d="M386.557,345.728
					c0,0-0.152-0.016-0.228-0.023c-32.105-3.353-57.126-30.365-57.126-63.191c0-34.699,27.959-62.903,62.689-63.531
					c0.394-0.007,0.789-0.011,1.185-0.011c22.048,0,30.316,49.642,24.804,86.873C414.573,328.184,386.557,345.728,386.557,345.728z"
					/>
				
					<linearGradient id="SVGID_00000011726099894601836170000006789038003101223086_" gradientUnits="userSpaceOnUse" x1="456.4618" y1="282.4789" x2="386.5175" y2="282.4789">
					<stop  offset="0.5239" style="stop-color:#DFEDF4"/>
					<stop  offset="0.671" style="stop-color:#BEDBF0"/>
					<stop  offset="1" style="stop-color:#61A8E5"/>
				</linearGradient>
				<path style="fill:url(#SVGID_00000011726099894601836170000006789038003101223086_);" d="M392.882,218.899
					c-0.394,0-1.249,0.066-1.641,0.074l0.259,0.741c6.552,17.866,10.356,37.047,10.356,56.984c0,12.187-1.522,27.752-5.319,41.857
					c-3.871,14.381-10.02,27.185-10.02,27.185s0.098,0.014,0.143,0.018c2.047,0.199,4.123,0.301,6.222,0.301
					c29.334,0,54.028-19.865,61.363-46.876c1.445-5.323,2.217-10.923,2.217-16.704c0-4.74-0.519-9.358-1.502-13.802
					C448.656,240.199,423.256,218.899,392.882,218.899z"/>
				<path style="fill:#FFFFFF;" d="M341.28,319.824c-7.801-10.536-12.41-23.555-12.41-37.644c0-15.763,5.77-30.186,15.323-41.292
					l-0.182,0.058c3.682,11.47,5.686,23.643,5.686,36.15c0,15.284-3.083,29.591-8.57,42.663L341.28,319.824z"/>
				<g>
					
						<linearGradient id="SVGID_00000002384379359911719150000008081432576547209636_" gradientUnits="userSpaceOnUse" x1="59.3229" y1="136.2412" x2="101.3029" y2="208.9528">
						<stop  offset="0.4038" style="stop-color:#007FC9"/>
						<stop  offset="1" style="stop-color:#0052CB"/>
					</linearGradient>
					<path style="fill:url(#SVGID_00000002384379359911719150000008081432576547209636_);" d="M68.129,228.106
						c5.669-18.493,15.083-35.837,26.901-51.186c8.424-10.941,18.194-21.224,28.523-29.867L96.235,114.93
						c-11.43,9.018-22.098,19.794-31.501,31.427c-0.446,0.552-0.889,1.105-1.329,1.661c-11.253,14.201-20.858,29.495-28.149,46.974
						L68.129,228.106z"/>
				</g>
				
					<linearGradient id="SVGID_00000039852837454911670510000007263793224634308795_" gradientUnits="userSpaceOnUse" x1="-142.3067" y1="55.5238" x2="96.235" y2="55.5238">
					<stop  offset="0" style="stop-color:#102D6E"/>
					<stop  offset="1" style="stop-color:#05194D"/>
				</linearGradient>
				<path style="fill:url(#SVGID_00000039852837454911670510000007263793224634308795_);" d="M-69.39-83.945L57.187,68.47
					l39.048,46.46c-11.43,9.018-22.223,19.836-31.626,31.469c-0.446,0.552-0.889,1.105-1.329,1.661
					c-11.253,14.201-20.733,29.454-28.024,46.933l-17.557-17.281l-160.006-157.99"/>
				<path style="fill:#0088CC;" d="M-0.015,381.68l19.094-17.906l13.281-12.625l0,0c-7.67-20.641-13.224-45.783-14.12-69.42
					c-0.086-2.269-0.13-4.523-0.13-6.758c0-28.172,6.297-54.995,17.146-79.979l0.112-0.267l-17.919-17.347l-160.006-157.99
					l2.917,489l79.743-72.366L-0.015,381.68z"/>
				
					<linearGradient id="SVGID_00000183229864916774911870000014196463387131555474_" gradientUnits="userSpaceOnUse" x1="-78.8905" y1="571.3048" x2="55.3595" y2="437.0548">
					<stop  offset="0.6395" style="stop-color:#00C6F7"/>
					<stop  offset="1" style="stop-color:#0087FB"/>
				</linearGradient>
				<path style="fill:url(#SVGID_00000183229864916774911870000014196463387131555474_);" d="M-23.515,626.68l79.743-72.366
					l59.882-54.342l-0.054,0.046c-20.959-10.204-40.294-23.162-57.418-38.464c-24.772-22.135-44.916-49.175-58.653-79.874
					l-59.882,54.342l-79.743,72.366L-23.515,626.68z"/>
				
					<linearGradient id="SVGID_00000127730155812756850020000015478911644130581937_" gradientUnits="userSpaceOnUse" x1="155.9424" y1="196.1094" x2="308.0608" y2="196.1094">
					<stop  offset="0" style="stop-color:#193C87"/>
					<stop  offset="1" style="stop-color:#05194D"/>
				</linearGradient>
				<path style="fill:url(#SVGID_00000127730155812756850020000015478911644130581937_);" d="M308.061,186.598
					c-20.613-17.564-47.341-28.165-76.544-28.165c-28.738,0-55.098,10.281-75.574,27.345l39.894,47.388
					c9.707-8.002,22.147-12.811,35.68-12.811c13.878,0,26.596,5.059,36.407,13.43L308.061,186.598z"/>
				<path style="fill:#0088CC;" d="M454.563,298.086c-7.267-1.25-12.875-7.602-12.875-15.226c0-7.718,5.582-14.093,12.977-15.231
					c0.013-0.002,0.047-0.009,0.047-0.009s0.461,1.497,0.919,4.059c0.526,2.943,1.06,7.147,1.06,9.68
					c0,4.233-0.333,8.568-1.123,12.57c-0.289,1.463-0.649,2.727-1.036,4.152L454.563,298.086z"/>
				
					<linearGradient id="SVGID_00000106837682745036839210000014099866730195998093_" gradientUnits="userSpaceOnUse" x1="233.485" y1="-83.945" x2="233.485" y2="87.8278">
					<stop  offset="0" style="stop-color:#0088CC"/>
					<stop  offset="1" style="stop-color:#0241B7"/>
				</linearGradient>
				<path style="fill:url(#SVGID_00000106837682745036839210000014099866730195998093_);" d="M0.027,0l69.529,83.121
					c43.078-35.303,98.165-56.495,158.206-56.495c62.649,0,120.022,23.1,163.868,61.202L536.36-83.945H-69.39L0.027,0z"/>
				<path style="fill:#FFFFFF;" d="M456.32,267.394c-0.549,0-1.089,0.04-1.623,0.096c0.089,0.37,0.188,0.737,0.271,1.109
					c0.984,4.444,1.502,9.062,1.502,13.802c0,5.393-0.679,10.626-1.943,15.626c0.59,0.069,1.185,0.116,1.793,0.116
					c8.491,0,15.375-6.884,15.375-15.375C471.695,274.277,464.812,267.394,456.32,267.394z"/>
				<g>
					<defs>
						<path id="SVGID_00000072253809556905338390000009155698592134789006_" d="M66.436,319.002
							c-3.528-13.577-5.578-27.149-5.578-41.815c0-16.634,2.416-32.714,6.915-47.908c0.152-0.514,0.463-1.538,0.463-1.538
							l-32.869-33.016c0,0-0.437,1.011-0.652,1.518c-10.443,24.575-16.355,51.459-16.355,79.061c0,2.234,0.044,4.489,0.13,6.758
							c0.896,23.637,6.2,48.445,13.87,69.086L66.436,319.002z"/>
					</defs>
					
						<linearGradient id="SVGID_00000116201272559282282660000000772539346274157977_" gradientUnits="userSpaceOnUse" x1="18.36" y1="272.937" x2="68.2367" y2="272.937">
						<stop  offset="0.5239" style="stop-color:#DFEDF4"/>
						<stop  offset="0.671" style="stop-color:#BEDBF0"/>
						<stop  offset="1" style="stop-color:#61A8E5"/>
					</linearGradient>
					
						<use xlink:href="#SVGID_00000072253809556905338390000009155698592134789006_"  style="overflow:visible;fill:url(#SVGID_00000116201272559282282660000000772539346274157977_);"/>
					<clipPath id="SVGID_00000019655277883264704250000000386645070879744396_">
						<use xlink:href="#SVGID_00000072253809556905338390000009155698592134789006_"  style="overflow:visible;"/>
					</clipPath>
				</g>
				<g>
					<defs>
						<path id="SVGID_00000072255294464692182220000011588019168779019169_" d="M66.421,318.985
							c-3.528-13.577-5.578-27.149-5.578-41.815c0-16.634,2.416-32.714,6.915-47.908c0.152-0.514,0.463-1.538,0.463-1.538
							l-32.869-33.016c0,0-0.437,1.011-0.652,1.519c-10.443,24.575-16.355,51.459-16.355,79.061c0,2.234,0.044,4.489,0.13,6.758
							c0.896,23.637,6.347,48.846,14.018,69.487L66.421,318.985z"/>
					</defs>
					<clipPath id="SVGID_00000117648702235561454430000002252321846741447085_">
						<use xlink:href="#SVGID_00000072255294464692182220000011588019168779019169_"  style="overflow:visible;"/>
					</clipPath>
					<g style="clip-path:url(#SVGID_00000117648702235561454430000002252321846741447085_);">
						<line style="fill:none;stroke:#0088CC;stroke-miterlimit:10;" x1="-332.625" y1="272.919" x2="15.985" y2="-149.244"/>
						<line style="fill:none;stroke:#0088CC;stroke-miterlimit:10;" x1="-325.3" y1="278.96" x2="23.309" y2="-143.203"/>
						<line style="fill:none;stroke:#0088CC;stroke-miterlimit:10;" x1="-317.449" y1="285.435" x2="31.16" y2="-136.728"/>
						<line style="fill:none;stroke:#0088CC;stroke-miterlimit:10;" x1="-310.125" y1="291.476" x2="38.484" y2="-130.687"/>
						<line style="fill:none;stroke:#0088CC;stroke-miterlimit:10;" x1="-302.512" y1="297.754" x2="46.097" y2="-124.409"/>
						<line style="fill:none;stroke:#0088CC;stroke-miterlimit:10;" x1="-295.188" y1="303.795" x2="53.421" y2="-118.368"/>
						<line style="fill:none;stroke:#0088CC;stroke-miterlimit:10;" x1="-287.337" y1="310.27" x2="61.272" y2="-111.893"/>
						<line style="fill:none;stroke:#0088CC;stroke-miterlimit:10;" x1="-280.013" y1="316.311" x2="68.596" y2="-105.852"/>
						<line style="fill:none;stroke:#0088CC;stroke-miterlimit:10;" x1="-271.586" y1="323.261" x2="77.023" y2="-98.902"/>
						<line style="fill:none;stroke:#0088CC;stroke-miterlimit:10;" x1="-264.262" y1="329.301" x2="84.347" y2="-92.862"/>
						<line style="fill:none;stroke:#0088CC;stroke-miterlimit:10;" x1="-256.411" y1="335.777" x2="92.198" y2="-86.386"/>
						<line style="fill:none;stroke:#0088CC;stroke-miterlimit:10;" x1="-249.087" y1="341.817" x2="99.522" y2="-80.346"/>
						<line style="fill:none;stroke:#0088CC;stroke-miterlimit:10;" x1="-241.474" y1="348.096" x2="107.135" y2="-74.067"/>
						<line style="fill:none;stroke:#0088CC;stroke-miterlimit:10;" x1="-234.15" y1="354.136" x2="114.459" y2="-68.027"/>
						<line style="fill:none;stroke:#0088CC;stroke-miterlimit:10;" x1="-226.299" y1="360.612" x2="122.31" y2="-61.551"/>
						<line style="fill:none;stroke:#0088CC;stroke-miterlimit:10;" x1="-218.975" y1="366.652" x2="129.635" y2="-55.511"/>
						<line style="fill:none;stroke:#0088CC;stroke-miterlimit:10;" x1="-212.176" y1="372.259" x2="136.433" y2="-49.903"/>
						<line style="fill:none;stroke:#0088CC;stroke-miterlimit:10;" x1="-204.852" y1="378.3" x2="143.758" y2="-43.863"/>
						<line style="fill:none;stroke:#0088CC;stroke-miterlimit:10;" x1="-197" y1="384.776" x2="151.609" y2="-37.388"/>
						<line style="fill:none;stroke:#0088CC;stroke-miterlimit:10;" x1="-189.676" y1="390.816" x2="158.933" y2="-31.347"/>
						<line style="fill:none;stroke:#0088CC;stroke-miterlimit:10;" x1="-182.064" y1="397.095" x2="166.545" y2="-25.068"/>
						<line style="fill:none;stroke:#0088CC;stroke-miterlimit:10;" x1="-174.739" y1="403.135" x2="173.87" y2="-19.028"/>
						<line style="fill:none;stroke:#0088CC;stroke-miterlimit:10;" x1="-166.888" y1="409.611" x2="181.721" y2="-12.552"/>
						<line style="fill:none;stroke:#0088CC;stroke-miterlimit:10;" x1="-159.564" y1="415.651" x2="189.045" y2="-6.512"/>
						<line style="fill:none;stroke:#0088CC;stroke-miterlimit:10;" x1="-149.46" y1="420.566" x2="197.471" y2="0.438"/>
						<line style="fill:none;stroke:#0088CC;stroke-miterlimit:10;" x1="-143.813" y1="428.642" x2="204.796" y2="6.478"/>
						<line style="fill:none;stroke:#0088CC;stroke-miterlimit:10;" x1="-135.962" y1="435.117" x2="212.647" y2="12.954"/>
						<line style="fill:none;stroke:#0088CC;stroke-miterlimit:10;" x1="-128.638" y1="441.157" x2="219.971" y2="18.994"/>
						<line style="fill:none;stroke:#0088CC;stroke-miterlimit:10;" x1="-121.025" y1="447.436" x2="227.584" y2="25.273"/>
						<line style="fill:none;stroke:#0088CC;stroke-miterlimit:10;" x1="-113.701" y1="453.477" x2="234.908" y2="31.313"/>
						<line style="fill:none;stroke:#0088CC;stroke-miterlimit:10;" x1="-105.85" y1="459.952" x2="242.759" y2="37.789"/>
						<line style="fill:none;stroke:#0088CC;stroke-miterlimit:10;" x1="-98.526" y1="465.992" x2="250.083" y2="43.829"/>
						<line style="fill:none;stroke:#0088CC;stroke-miterlimit:10;" x1="-91.536" y1="471.758" x2="257.073" y2="49.595"/>
						<line style="fill:none;stroke:#0088CC;stroke-miterlimit:10;" x1="-84.212" y1="477.798" x2="264.398" y2="55.635"/>
						<line style="fill:none;stroke:#0088CC;stroke-miterlimit:10;" x1="-76.36" y1="484.273" x2="272.249" y2="62.11"/>
						<line style="fill:none;stroke:#0088CC;stroke-miterlimit:10;" x1="-69.036" y1="490.314" x2="279.573" y2="68.151"/>
						<line style="fill:none;stroke:#0088CC;stroke-miterlimit:10;" x1="-61.424" y1="496.593" x2="287.185" y2="74.43"/>
						<line style="fill:none;stroke:#0088CC;stroke-miterlimit:10;" x1="-54.099" y1="502.633" x2="294.51" y2="80.47"/>
						<line style="fill:none;stroke:#0088CC;stroke-miterlimit:10;" x1="-46.248" y1="509.108" x2="302.361" y2="86.945"/>
						<line style="fill:none;stroke:#0088CC;stroke-miterlimit:10;" x1="-38.924" y1="515.149" x2="309.685" y2="92.986"/>
						<line style="fill:none;stroke:#0088CC;stroke-miterlimit:10;" x1="-30.497" y1="522.099" x2="318.111" y2="99.936"/>
						<line style="fill:none;stroke:#0088CC;stroke-miterlimit:10;" x1="-23.173" y1="528.14" x2="325.436" y2="105.976"/>
						<line style="fill:none;stroke:#0088CC;stroke-miterlimit:10;" x1="-15.322" y1="534.615" x2="333.287" y2="112.452"/>
						<line style="fill:none;stroke:#0088CC;stroke-miterlimit:10;" x1="-7.998" y1="540.655" x2="340.611" y2="118.492"/>
						<line style="fill:none;stroke:#0088CC;stroke-miterlimit:10;" x1="-0.385" y1="546.934" x2="348.224" y2="124.771"/>
						<line style="fill:none;stroke:#0088CC;stroke-miterlimit:10;" x1="6.939" y1="552.974" x2="355.548" y2="130.811"/>
						<line style="fill:none;stroke:#0088CC;stroke-miterlimit:10;" x1="14.79" y1="559.45" x2="363.399" y2="137.287"/>
						<line style="fill:none;stroke:#0088CC;stroke-miterlimit:10;" x1="22.114" y1="565.49" x2="370.723" y2="143.327"/>
						<line style="fill:none;stroke:#0088CC;stroke-miterlimit:10;" x1="28.913" y1="571.098" x2="377.522" y2="148.935"/>
						<line style="fill:none;stroke:#0088CC;stroke-miterlimit:10;" x1="36.237" y1="577.138" x2="384.846" y2="154.975"/>
						<line style="fill:none;stroke:#0088CC;stroke-miterlimit:10;" x1="44.088" y1="583.614" x2="392.697" y2="161.451"/>
						<line style="fill:none;stroke:#0088CC;stroke-miterlimit:10;" x1="51.412" y1="589.654" x2="400.022" y2="167.491"/>
						<line style="fill:none;stroke:#0088CC;stroke-miterlimit:10;" x1="59.025" y1="595.933" x2="407.634" y2="173.77"/>
						<line style="fill:none;stroke:#0088CC;stroke-miterlimit:10;" x1="66.349" y1="601.973" x2="414.958" y2="179.81"/>
					</g>
				</g>
				
					<linearGradient id="SVGID_00000150100074553556125050000009837723615588535470_" gradientUnits="userSpaceOnUse" x1="247.9039" y1="571.2596" x2="416.5148" y2="473.9121">
					<stop  offset="0.5239" style="stop-color:#DFEDF4"/>
					<stop  offset="0.7805" style="stop-color:#BEDBF0"/>
					<stop  offset="1" style="stop-color:#61A8E5"/>
				</linearGradient>
				<path style="fill:url(#SVGID_00000150100074553556125050000009837723615588535470_);" d="M230.354,526.18
					c37.818,0,73.693-8.475,105.827-23.625c1.735-0.818,3.459-1.656,5.172-2.512c20.469-10.237,39.339-23.211,56.129-38.441
					l17.978,20.251l16.124,18.162c-19.775,14.569-40.123,29.505-60.725,44.347c-1.351,0.973-2.704,1.946-4.057,2.919
					c-31.498,22.633-63.541,44.976-94.992,65.388L230.354,526.18z"/>
				<g>
					<defs>
						<path id="SVGID_00000027565322793085965530000000278992750169603200_" d="M230.313,526.097
							c37.818,0,73.693-8.475,105.827-23.625c1.735-0.818,3.459-1.656,5.172-2.512c20.469-10.237,39.34-23.211,56.129-38.441
							l17.978,20.251l16.124,18.162c-19.775,14.569-40.123,29.505-60.725,44.347c-1.351,0.973-2.704,1.946-4.057,2.919
							c-31.498,22.633-63.541,44.976-94.992,65.388L230.313,526.097z"/>
					</defs>
					<clipPath id="SVGID_00000147930272511280370120000015533416184277419649_">
						<use xlink:href="#SVGID_00000027565322793085965530000000278992750169603200_"  style="overflow:visible;"/>
					</clipPath>
					<g style="clip-path:url(#SVGID_00000147930272511280370120000015533416184277419649_);">
						<line style="fill:none;stroke:#0088CC;stroke-miterlimit:10;" x1="-191.758" y1="550.58" x2="156.851" y2="128.417"/>
						<line style="fill:none;stroke:#0088CC;stroke-miterlimit:10;" x1="-184.434" y1="556.621" x2="164.175" y2="134.458"/>
						<line style="fill:none;stroke:#0088CC;stroke-miterlimit:10;" x1="-176.583" y1="563.096" x2="172.026" y2="140.933"/>
						<line style="fill:none;stroke:#0088CC;stroke-miterlimit:10;" x1="-169.259" y1="569.136" x2="179.35" y2="146.973"/>
						<line style="fill:none;stroke:#0088CC;stroke-miterlimit:10;" x1="-161.646" y1="575.415" x2="186.963" y2="153.252"/>
						<line style="fill:none;stroke:#0088CC;stroke-miterlimit:10;" x1="-154.322" y1="581.456" x2="194.287" y2="159.293"/>
						<line style="fill:none;stroke:#0088CC;stroke-miterlimit:10;" x1="-146.471" y1="587.931" x2="202.138" y2="165.768"/>
						<line style="fill:none;stroke:#0088CC;stroke-miterlimit:10;" x1="-139.146" y1="593.971" x2="209.463" y2="171.809"/>
						<line style="fill:none;stroke:#0088CC;stroke-miterlimit:10;" x1="-130.72" y1="600.921" x2="217.889" y2="178.758"/>
						<line style="fill:none;stroke:#0088CC;stroke-miterlimit:10;" x1="-123.396" y1="606.962" x2="225.213" y2="184.799"/>
						<line style="fill:none;stroke:#0088CC;stroke-miterlimit:10;" x1="-115.545" y1="613.437" x2="233.064" y2="191.274"/>
						<line style="fill:none;stroke:#0088CC;stroke-miterlimit:10;" x1="-108.22" y1="619.478" x2="240.389" y2="197.315"/>
						<line style="fill:none;stroke:#0088CC;stroke-miterlimit:10;" x1="-100.608" y1="625.756" x2="248.001" y2="203.593"/>
						<line style="fill:none;stroke:#0088CC;stroke-miterlimit:10;" x1="-93.284" y1="631.797" x2="255.325" y2="209.634"/>
						<line style="fill:none;stroke:#0088CC;stroke-miterlimit:10;" x1="-85.433" y1="638.272" x2="263.176" y2="216.109"/>
						<line style="fill:none;stroke:#0088CC;stroke-miterlimit:10;" x1="-78.108" y1="644.313" x2="270.501" y2="222.15"/>
						<line style="fill:none;stroke:#0088CC;stroke-miterlimit:10;" x1="-71.31" y1="649.92" x2="277.299" y2="227.757"/>
						<line style="fill:none;stroke:#0088CC;stroke-miterlimit:10;" x1="-63.985" y1="655.961" x2="284.624" y2="233.798"/>
						<line style="fill:none;stroke:#0088CC;stroke-miterlimit:10;" x1="-56.134" y1="662.436" x2="292.475" y2="240.273"/>
						<line style="fill:none;stroke:#0088CC;stroke-miterlimit:10;" x1="-48.81" y1="668.477" x2="299.799" y2="246.314"/>
						<line style="fill:none;stroke:#0088CC;stroke-miterlimit:10;" x1="-41.197" y1="674.755" x2="307.412" y2="252.592"/>
						<line style="fill:none;stroke:#0088CC;stroke-miterlimit:10;" x1="-33.873" y1="680.796" x2="314.736" y2="258.633"/>
						<line style="fill:none;stroke:#0088CC;stroke-miterlimit:10;" x1="-26.022" y1="687.271" x2="322.587" y2="265.108"/>
						<line style="fill:none;stroke:#0088CC;stroke-miterlimit:10;" x1="-18.698" y1="693.312" x2="329.911" y2="271.149"/>
						<line style="fill:none;stroke:#0088CC;stroke-miterlimit:10;" x1="-8.593" y1="698.227" x2="338.338" y2="278.098"/>
						<line style="fill:none;stroke:#0088CC;stroke-miterlimit:10;" x1="-2.947" y1="706.302" x2="345.662" y2="284.139"/>
						<line style="fill:none;stroke:#0088CC;stroke-miterlimit:10;" x1="4.904" y1="712.777" x2="353.513" y2="290.614"/>
						<line style="fill:none;stroke:#0088CC;stroke-miterlimit:10;" x1="12.228" y1="718.818" x2="360.837" y2="296.655"/>
						<line style="fill:none;stroke:#0088CC;stroke-miterlimit:10;" x1="19.841" y1="725.096" x2="368.45" y2="302.933"/>
						<line style="fill:none;stroke:#0088CC;stroke-miterlimit:10;" x1="27.165" y1="731.137" x2="375.774" y2="308.974"/>
						<line style="fill:none;stroke:#0088CC;stroke-miterlimit:10;" x1="35.016" y1="737.612" x2="383.625" y2="315.449"/>
						<line style="fill:none;stroke:#0088CC;stroke-miterlimit:10;" x1="42.34" y1="743.653" x2="390.949" y2="321.49"/>
						<line style="fill:none;stroke:#0088CC;stroke-miterlimit:10;" x1="49.331" y1="749.418" x2="397.94" y2="327.255"/>
						<line style="fill:none;stroke:#0088CC;stroke-miterlimit:10;" x1="56.655" y1="755.459" x2="405.264" y2="333.296"/>
						<line style="fill:none;stroke:#0088CC;stroke-miterlimit:10;" x1="64.506" y1="761.934" x2="413.115" y2="339.771"/>
						<line style="fill:none;stroke:#0088CC;stroke-miterlimit:10;" x1="71.83" y1="767.975" x2="420.439" y2="345.812"/>
						<line style="fill:none;stroke:#0088CC;stroke-miterlimit:10;" x1="79.443" y1="774.253" x2="428.052" y2="352.09"/>
						<line style="fill:none;stroke:#0088CC;stroke-miterlimit:10;" x1="86.767" y1="780.294" x2="435.376" y2="358.131"/>
						<line style="fill:none;stroke:#0088CC;stroke-miterlimit:10;" x1="94.618" y1="786.769" x2="443.227" y2="364.606"/>
						<line style="fill:none;stroke:#0088CC;stroke-miterlimit:10;" x1="101.942" y1="792.81" x2="450.551" y2="370.647"/>
						<line style="fill:none;stroke:#0088CC;stroke-miterlimit:10;" x1="110.369" y1="799.759" x2="458.978" y2="377.596"/>
						<line style="fill:none;stroke:#0088CC;stroke-miterlimit:10;" x1="117.693" y1="805.8" x2="466.302" y2="383.637"/>
						<line style="fill:none;stroke:#0088CC;stroke-miterlimit:10;" x1="125.544" y1="812.275" x2="474.153" y2="390.112"/>
						<line style="fill:none;stroke:#0088CC;stroke-miterlimit:10;" x1="132.868" y1="818.316" x2="481.477" y2="396.153"/>
						<line style="fill:none;stroke:#0088CC;stroke-miterlimit:10;" x1="140.481" y1="824.594" x2="489.09" y2="402.431"/>
						<line style="fill:none;stroke:#0088CC;stroke-miterlimit:10;" x1="147.805" y1="830.635" x2="496.414" y2="408.472"/>
						<line style="fill:none;stroke:#0088CC;stroke-miterlimit:10;" x1="155.656" y1="837.11" x2="504.265" y2="414.947"/>
						<line style="fill:none;stroke:#0088CC;stroke-miterlimit:10;" x1="162.98" y1="843.151" x2="511.589" y2="420.988"/>
						<line style="fill:none;stroke:#0088CC;stroke-miterlimit:10;" x1="169.779" y1="848.758" x2="518.388" y2="426.595"/>
						<line style="fill:none;stroke:#0088CC;stroke-miterlimit:10;" x1="177.103" y1="854.799" x2="525.712" y2="432.636"/>
						<line style="fill:none;stroke:#0088CC;stroke-miterlimit:10;" x1="184.955" y1="861.274" x2="533.564" y2="439.111"/>
						<line style="fill:none;stroke:#0088CC;stroke-miterlimit:10;" x1="192.279" y1="867.315" x2="540.888" y2="445.152"/>
						<line style="fill:none;stroke:#0088CC;stroke-miterlimit:10;" x1="199.891" y1="873.593" x2="548.5" y2="451.43"/>
						<line style="fill:none;stroke:#0088CC;stroke-miterlimit:10;" x1="207.216" y1="879.634" x2="555.825" y2="457.471"/>
					</g>
				</g>
				<g>
					<defs>
						<path id="SVGID_00000175290356345304767990000001307776834586731404_" d="M227.876,26.656
							c-60.028,0-115.103,21.183-158.177,56.472l26.648,31.835l1.304,1.558l26.016,30.563
							c29.347-24.557,66.387-39.331,107.558-39.331c41.667,0,80.599,15.133,110.094,40.223l25.906-30.973l24.293-29.042l0.111-0.133
							C347.784,49.725,290.525,26.656,227.876,26.656z"/>
					</defs>
					<clipPath id="SVGID_00000024715230001668320610000008681587932758358451_">
						<use xlink:href="#SVGID_00000175290356345304767990000001307776834586731404_"  style="overflow:visible;"/>
					</clipPath>
					<g style="clip-path:url(#SVGID_00000024715230001668320610000008681587932758358451_);">
						<line style="fill:none;stroke:#0088CC;stroke-miterlimit:10;" x1="-164.984" y1="123.499" x2="183.625" y2="-298.664"/>
						<line style="fill:none;stroke:#0088CC;stroke-miterlimit:10;" x1="-157.66" y1="129.54" x2="190.949" y2="-292.623"/>
						<line style="fill:none;stroke:#0088CC;stroke-miterlimit:10;" x1="-149.809" y1="136.015" x2="198.8" y2="-286.148"/>
						<line style="fill:none;stroke:#0088CC;stroke-miterlimit:10;" x1="-142.485" y1="142.055" x2="206.124" y2="-280.107"/>
						<line style="fill:none;stroke:#0088CC;stroke-miterlimit:10;" x1="-134.872" y1="148.334" x2="213.737" y2="-273.829"/>
						<line style="fill:none;stroke:#0088CC;stroke-miterlimit:10;" x1="-127.548" y1="154.375" x2="221.061" y2="-267.788"/>
						<line style="fill:none;stroke:#0088CC;stroke-miterlimit:10;" x1="-119.697" y1="160.85" x2="228.912" y2="-261.313"/>
						<line style="fill:none;stroke:#0088CC;stroke-miterlimit:10;" x1="-112.373" y1="166.891" x2="236.236" y2="-255.273"/>
						<line style="fill:none;stroke:#0088CC;stroke-miterlimit:10;" x1="-103.946" y1="173.84" x2="244.663" y2="-248.323"/>
						<line style="fill:none;stroke:#0088CC;stroke-miterlimit:10;" x1="-96.622" y1="179.881" x2="251.987" y2="-242.282"/>
						<line style="fill:none;stroke:#0088CC;stroke-miterlimit:10;" x1="-88.771" y1="186.356" x2="259.838" y2="-235.807"/>
						<line style="fill:none;stroke:#0088CC;stroke-miterlimit:10;" x1="-81.447" y1="192.397" x2="267.163" y2="-229.766"/>
						<line style="fill:none;stroke:#0088CC;stroke-miterlimit:10;" x1="-73.834" y1="198.675" x2="274.775" y2="-223.488"/>
						<line style="fill:none;stroke:#0088CC;stroke-miterlimit:10;" x1="-66.51" y1="204.716" x2="282.099" y2="-217.447"/>
						<line style="fill:none;stroke:#0088CC;stroke-miterlimit:10;" x1="-58.659" y1="211.191" x2="289.951" y2="-210.972"/>
						<line style="fill:none;stroke:#0088CC;stroke-miterlimit:10;" x1="-51.334" y1="217.232" x2="297.275" y2="-204.931"/>
						<line style="fill:none;stroke:#0088CC;stroke-miterlimit:10;" x1="-44.536" y1="222.839" x2="304.073" y2="-199.324"/>
						<line style="fill:none;stroke:#0088CC;stroke-miterlimit:10;" x1="-37.211" y1="228.88" x2="311.398" y2="-193.283"/>
						<line style="fill:none;stroke:#0088CC;stroke-miterlimit:10;" x1="-29.36" y1="235.355" x2="319.249" y2="-186.808"/>
						<line style="fill:none;stroke:#0088CC;stroke-miterlimit:10;" x1="-22.036" y1="241.396" x2="326.573" y2="-180.767"/>
						<line style="fill:none;stroke:#0088CC;stroke-miterlimit:10;" x1="-14.424" y1="247.674" x2="334.186" y2="-174.489"/>
						<line style="fill:none;stroke:#0088CC;stroke-miterlimit:10;" x1="-7.099" y1="253.715" x2="341.51" y2="-168.448"/>
						<line style="fill:none;stroke:#0088CC;stroke-miterlimit:10;" x1="0.752" y1="260.19" x2="349.361" y2="-161.973"/>
						<line style="fill:none;stroke:#0088CC;stroke-miterlimit:10;" x1="8.076" y1="266.231" x2="356.685" y2="-155.932"/>
						<line style="fill:none;stroke:#0088CC;stroke-miterlimit:10;" x1="18.181" y1="271.146" x2="365.112" y2="-148.983"/>
						<line style="fill:none;stroke:#0088CC;stroke-miterlimit:10;" x1="23.827" y1="279.221" x2="372.436" y2="-142.942"/>
						<line style="fill:none;stroke:#0088CC;stroke-miterlimit:10;" x1="31.678" y1="285.696" x2="380.287" y2="-136.467"/>
						<line style="fill:none;stroke:#0088CC;stroke-miterlimit:10;" x1="39.002" y1="291.737" x2="387.611" y2="-130.426"/>
						<line style="fill:none;stroke:#0088CC;stroke-miterlimit:10;" x1="46.615" y1="298.015" x2="395.224" y2="-124.148"/>
						<line style="fill:none;stroke:#0088CC;stroke-miterlimit:10;" x1="53.939" y1="304.056" x2="402.548" y2="-118.107"/>
						<line style="fill:none;stroke:#0088CC;stroke-miterlimit:10;" x1="61.79" y1="310.531" x2="410.399" y2="-111.632"/>
						<line style="fill:none;stroke:#0088CC;stroke-miterlimit:10;" x1="69.114" y1="316.572" x2="417.723" y2="-105.591"/>
						<line style="fill:none;stroke:#0088CC;stroke-miterlimit:10;" x1="76.104" y1="322.337" x2="424.714" y2="-99.826"/>
						<line style="fill:none;stroke:#0088CC;stroke-miterlimit:10;" x1="83.429" y1="328.378" x2="432.038" y2="-93.785"/>
						<line style="fill:none;stroke:#0088CC;stroke-miterlimit:10;" x1="91.28" y1="334.853" x2="439.889" y2="-87.31"/>
						<line style="fill:none;stroke:#0088CC;stroke-miterlimit:10;" x1="98.604" y1="340.894" x2="447.213" y2="-81.269"/>
						<line style="fill:none;stroke:#0088CC;stroke-miterlimit:10;" x1="106.217" y1="347.172" x2="454.826" y2="-74.991"/>
						<line style="fill:none;stroke:#0088CC;stroke-miterlimit:10;" x1="113.541" y1="353.213" x2="462.15" y2="-68.95"/>
						<line style="fill:none;stroke:#0088CC;stroke-miterlimit:10;" x1="121.392" y1="359.688" x2="470.001" y2="-62.475"/>
						<line style="fill:none;stroke:#0088CC;stroke-miterlimit:10;" x1="128.716" y1="365.729" x2="477.325" y2="-56.434"/>
						<line style="fill:none;stroke:#0088CC;stroke-miterlimit:10;" x1="137.143" y1="372.678" x2="485.752" y2="-49.485"/>
						<line style="fill:none;stroke:#0088CC;stroke-miterlimit:10;" x1="144.467" y1="378.719" x2="493.076" y2="-43.444"/>
						<line style="fill:none;stroke:#0088CC;stroke-miterlimit:10;" x1="152.318" y1="385.194" x2="500.927" y2="-36.969"/>
						<line style="fill:none;stroke:#0088CC;stroke-miterlimit:10;" x1="159.642" y1="391.235" x2="508.251" y2="-30.928"/>
						<line style="fill:none;stroke:#0088CC;stroke-miterlimit:10;" x1="167.255" y1="397.513" x2="515.864" y2="-24.65"/>
						<line style="fill:none;stroke:#0088CC;stroke-miterlimit:10;" x1="174.579" y1="403.554" x2="523.188" y2="-18.609"/>
						<line style="fill:none;stroke:#0088CC;stroke-miterlimit:10;" x1="182.43" y1="410.029" x2="531.039" y2="-12.134"/>
						<line style="fill:none;stroke:#0088CC;stroke-miterlimit:10;" x1="189.754" y1="416.07" x2="538.363" y2="-6.093"/>
						<line style="fill:none;stroke:#0088CC;stroke-miterlimit:10;" x1="196.553" y1="421.677" x2="545.162" y2="-0.486"/>
						<line style="fill:none;stroke:#0088CC;stroke-miterlimit:10;" x1="203.877" y1="427.718" x2="552.486" y2="5.555"/>
						<line style="fill:none;stroke:#0088CC;stroke-miterlimit:10;" x1="211.729" y1="434.193" x2="560.337" y2="12.03"/>
						<line style="fill:none;stroke:#0088CC;stroke-miterlimit:10;" x1="219.053" y1="440.234" x2="567.662" y2="18.071"/>
						<line style="fill:none;stroke:#0088CC;stroke-miterlimit:10;" x1="226.665" y1="446.512" x2="575.274" y2="24.349"/>
						<line style="fill:none;stroke:#0088CC;stroke-miterlimit:10;" x1="233.99" y1="452.553" x2="582.599" y2="30.39"/>
					</g>
				</g>
				<g>
					<defs>
						<path id="SVGID_00000129911159204535387190000003605378803058855821_" d="M392.809,218.837c-0.394,0-1.249,0.066-1.641,0.074
							l0.259,0.741c6.552,17.866,10.356,37.047,10.356,56.984c0,12.187-1.522,27.752-5.319,41.857
							c-3.871,14.381-10.02,27.185-10.02,27.185s0.098,0.014,0.143,0.018c2.047,0.199,4.123,0.301,6.222,0.301
							c29.334,0,54.028-19.865,61.363-46.876c1.445-5.323,2.217-10.923,2.217-16.704c0-4.74-0.519-9.358-1.502-13.802
							C448.583,240.136,423.184,218.837,392.809,218.837z"/>
					</defs>
					<clipPath id="SVGID_00000162320244338965438200000015303233924307063727_">
						<use xlink:href="#SVGID_00000129911159204535387190000003605378803058855821_"  style="overflow:visible;"/>
					</clipPath>
					<g style="clip-path:url(#SVGID_00000162320244338965438200000015303233924307063727_);">
						<line style="fill:none;stroke:#0088CC;stroke-miterlimit:10;" x1="-26.179" y1="286.366" x2="322.43" y2="-135.797"/>
						<line style="fill:none;stroke:#0088CC;stroke-miterlimit:10;" x1="-18.855" y1="292.406" x2="329.754" y2="-129.757"/>
						<line style="fill:none;stroke:#0088CC;stroke-miterlimit:10;" x1="-11.003" y1="298.882" x2="337.606" y2="-123.281"/>
						<line style="fill:none;stroke:#0088CC;stroke-miterlimit:10;" x1="-3.679" y1="304.922" x2="344.93" y2="-117.241"/>
						<line style="fill:none;stroke:#0088CC;stroke-miterlimit:10;" x1="3.933" y1="311.201" x2="352.542" y2="-110.962"/>
						<line style="fill:none;stroke:#0088CC;stroke-miterlimit:10;" x1="11.258" y1="317.241" x2="359.867" y2="-104.922"/>
						<line style="fill:none;stroke:#0088CC;stroke-miterlimit:10;" x1="19.109" y1="323.717" x2="367.718" y2="-98.446"/>
						<line style="fill:none;stroke:#0088CC;stroke-miterlimit:10;" x1="26.433" y1="329.757" x2="375.042" y2="-92.406"/>
						<line style="fill:none;stroke:#0088CC;stroke-miterlimit:10;" x1="34.859" y1="336.707" x2="383.468" y2="-85.456"/>
						<line style="fill:none;stroke:#0088CC;stroke-miterlimit:10;" x1="42.184" y1="342.748" x2="390.793" y2="-79.415"/>
						<line style="fill:none;stroke:#0088CC;stroke-miterlimit:10;" x1="50.035" y1="349.223" x2="398.644" y2="-72.94"/>
						<line style="fill:none;stroke:#0088CC;stroke-miterlimit:10;" x1="57.359" y1="355.264" x2="405.968" y2="-66.899"/>
						<line style="fill:none;stroke:#0088CC;stroke-miterlimit:10;" x1="64.971" y1="361.542" x2="413.581" y2="-60.621"/>
						<line style="fill:none;stroke:#0088CC;stroke-miterlimit:10;" x1="72.296" y1="367.583" x2="420.905" y2="-54.58"/>
						<line style="fill:none;stroke:#0088CC;stroke-miterlimit:10;" x1="80.147" y1="374.058" x2="428.756" y2="-48.105"/>
						<line style="fill:none;stroke:#0088CC;stroke-miterlimit:10;" x1="87.471" y1="380.099" x2="436.08" y2="-42.064"/>
						<line style="fill:none;stroke:#0088CC;stroke-miterlimit:10;" x1="94.27" y1="385.706" x2="442.879" y2="-36.457"/>
						<line style="fill:none;stroke:#0088CC;stroke-miterlimit:10;" x1="101.594" y1="391.747" x2="450.203" y2="-30.417"/>
						<line style="fill:none;stroke:#0088CC;stroke-miterlimit:10;" x1="109.445" y1="398.222" x2="458.054" y2="-23.941"/>
						<line style="fill:none;stroke:#0088CC;stroke-miterlimit:10;" x1="116.769" y1="404.262" x2="465.379" y2="-17.901"/>
						<line style="fill:none;stroke:#0088CC;stroke-miterlimit:10;" x1="124.382" y1="410.541" x2="472.991" y2="-11.622"/>
						<line style="fill:none;stroke:#0088CC;stroke-miterlimit:10;" x1="131.706" y1="416.582" x2="480.315" y2="-5.581"/>
						<line style="fill:none;stroke:#0088CC;stroke-miterlimit:10;" x1="139.557" y1="423.057" x2="488.167" y2="0.894"/>
						<line style="fill:none;stroke:#0088CC;stroke-miterlimit:10;" x1="146.882" y1="429.098" x2="495.491" y2="6.935"/>
						<line style="fill:none;stroke:#0088CC;stroke-miterlimit:10;" x1="156.986" y1="434.013" x2="503.917" y2="13.884"/>
						<line style="fill:none;stroke:#0088CC;stroke-miterlimit:10;" x1="162.632" y1="442.088" x2="511.241" y2="19.925"/>
						<line style="fill:none;stroke:#0088CC;stroke-miterlimit:10;" x1="170.483" y1="448.563" x2="519.092" y2="26.4"/>
						<line style="fill:none;stroke:#0088CC;stroke-miterlimit:10;" x1="177.808" y1="454.604" x2="526.417" y2="32.441"/>
						<line style="fill:none;stroke:#0088CC;stroke-miterlimit:10;" x1="185.42" y1="460.882" x2="534.029" y2="38.719"/>
						<line style="fill:none;stroke:#0088CC;stroke-miterlimit:10;" x1="192.744" y1="466.923" x2="541.354" y2="44.76"/>
						<line style="fill:none;stroke:#0088CC;stroke-miterlimit:10;" x1="200.596" y1="473.398" x2="549.205" y2="51.235"/>
						<line style="fill:none;stroke:#0088CC;stroke-miterlimit:10;" x1="207.92" y1="479.439" x2="556.529" y2="57.276"/>
						<line style="fill:none;stroke:#0088CC;stroke-miterlimit:10;" x1="214.91" y1="485.204" x2="563.519" y2="63.041"/>
						<line style="fill:none;stroke:#0088CC;stroke-miterlimit:10;" x1="222.234" y1="491.245" x2="570.843" y2="69.081"/>
						<line style="fill:none;stroke:#0088CC;stroke-miterlimit:10;" x1="230.085" y1="497.72" x2="578.694" y2="75.557"/>
						<line style="fill:none;stroke:#0088CC;stroke-miterlimit:10;" x1="237.41" y1="503.76" x2="586.019" y2="81.597"/>
						<line style="fill:none;stroke:#0088CC;stroke-miterlimit:10;" x1="245.022" y1="510.039" x2="593.631" y2="87.876"/>
						<line style="fill:none;stroke:#0088CC;stroke-miterlimit:10;" x1="252.346" y1="516.08" x2="600.955" y2="93.917"/>
						<line style="fill:none;stroke:#0088CC;stroke-miterlimit:10;" x1="260.198" y1="522.555" x2="608.806" y2="100.392"/>
						<line style="fill:none;stroke:#0088CC;stroke-miterlimit:10;" x1="267.522" y1="528.596" x2="616.131" y2="106.433"/>
						<line style="fill:none;stroke:#0088CC;stroke-miterlimit:10;" x1="275.948" y1="535.545" x2="624.557" y2="113.382"/>
						<line style="fill:none;stroke:#0088CC;stroke-miterlimit:10;" x1="283.272" y1="541.586" x2="631.881" y2="119.423"/>
						<line style="fill:none;stroke:#0088CC;stroke-miterlimit:10;" x1="291.124" y1="548.061" x2="639.733" y2="125.898"/>
						<line style="fill:none;stroke:#0088CC;stroke-miterlimit:10;" x1="298.448" y1="554.102" x2="647.057" y2="131.939"/>
						<line style="fill:none;stroke:#0088CC;stroke-miterlimit:10;" x1="306.06" y1="560.38" x2="654.669" y2="138.217"/>
						<line style="fill:none;stroke:#0088CC;stroke-miterlimit:10;" x1="313.384" y1="566.421" x2="661.994" y2="144.258"/>
						<line style="fill:none;stroke:#0088CC;stroke-miterlimit:10;" x1="321.236" y1="572.896" x2="669.845" y2="150.733"/>
						<line style="fill:none;stroke:#0088CC;stroke-miterlimit:10;" x1="328.56" y1="578.937" x2="677.169" y2="156.774"/>
						<line style="fill:none;stroke:#0088CC;stroke-miterlimit:10;" x1="335.359" y1="584.544" x2="683.968" y2="162.381"/>
						<line style="fill:none;stroke:#0088CC;stroke-miterlimit:10;" x1="342.683" y1="590.585" x2="691.292" y2="168.422"/>
						<line style="fill:none;stroke:#0088CC;stroke-miterlimit:10;" x1="350.534" y1="597.06" x2="699.143" y2="174.897"/>
						<line style="fill:none;stroke:#0088CC;stroke-miterlimit:10;" x1="357.858" y1="603.101" x2="706.467" y2="180.938"/>
						<line style="fill:none;stroke:#0088CC;stroke-miterlimit:10;" x1="365.471" y1="609.379" x2="714.08" y2="187.216"/>
						<line style="fill:none;stroke:#0088CC;stroke-miterlimit:10;" x1="372.795" y1="615.42" x2="721.404" y2="193.257"/>
					</g>
				</g>
			</g>
		</g>
	</g>
</g>
</svg>
